<svg xmlns="http://www.w3.org/2000/svg" xmlns:xlink="http://www.w3.org/1999/xlink" width="1587" zoomAndPan="magnify" viewBox="0 0 1190.25 1683.749945" height="2245" preserveAspectRatio="xMidYMid meet" version="1.0"><defs><g/><clipPath id="a1ef6b8a24"><path d="M 303.289062 1557.402344 L 380.214844 1557.402344 L 380.214844 1670 L 303.289062 1670 Z M 303.289062 1557.402344 " clip-rule="nonzero"/></clipPath><clipPath id="e17279f254"><path d="M 374.164062 1664.484375 C 363.222656 1680.824219 313.332031 1683.472656 305.339844 1667.667969 C 297.347656 1651.855469 315.265625 1585.972656 326.207031 1569.636719 C 336.660156 1554.015625 362.964844 1553.824219 370.957031 1569.636719 C 378.949219 1585.441406 385.101562 1648.152344 374.164062 1664.484375 Z M 374.164062 1664.484375 " clip-rule="evenodd"/></clipPath><clipPath id="517aa4ab24"><path d="M 419.539062 1557.792969 L 495 1557.792969 L 495 1669 L 419.539062 1669 Z M 419.539062 1557.792969 " clip-rule="nonzero"/></clipPath><clipPath id="1d72228a03"><path d="M 492.964844 1664.058594 C 485.109375 1679.789062 436.550781 1679.679688 425.75 1663.925781 C 414.941406 1648.167969 420.28125 1585.269531 428.140625 1569.535156 C 435.996094 1553.804688 462.308594 1554.101562 472.890625 1569.535156 C 483.695312 1585.289062 500.820312 1648.324219 492.964844 1664.058594 Z M 492.964844 1664.058594 " clip-rule="evenodd"/></clipPath><clipPath id="63f9700c04"><path d="M 200.476562 910 L 594.894531 910 L 594.894531 1651 L 200.476562 1651 Z M 200.476562 910 " clip-rule="nonzero"/></clipPath><clipPath id="35eb4e5186"><path d="M 236 1017 L 565 1017 L 565 1650.730469 L 236 1650.730469 Z M 236 1017 " clip-rule="nonzero"/></clipPath><clipPath id="ffed388685"><path d="M 253.292969 979.738281 C 274.140625 899.113281 379.714844 940.46875 379.714844 940.46875 C 379.714844 940.46875 502.792969 864.089844 531.164062 954.925781 C 566.972656 1069.609375 590.289062 1319.976562 594.570312 1628.53125 C 594.894531 1651.828125 442.871094 1650.140625 399.148438 1650.140625 C 355.183594 1650.140625 200.488281 1652.191406 200.875 1632.175781 C 207.601562 1283.386719 223.488281 1095.023438 253.292969 979.738281 Z M 253.292969 979.738281 " clip-rule="evenodd"/></clipPath><clipPath id="ae61042087"><path d="M 271 364.585938 L 525 364.585938 L 525 657 L 271 657 Z M 271 364.585938 " clip-rule="nonzero"/></clipPath><clipPath id="b8cba4fc1a"><path d="M 702 474 L 728 474 L 728 499.390625 L 702 499.390625 Z M 702 474 " clip-rule="nonzero"/></clipPath></defs><path fill="#e1e1e1" d="M 374.164062 1664.484375 C 363.222656 1680.824219 313.332031 1683.472656 305.339844 1667.667969 C 297.347656 1651.855469 315.265625 1585.972656 326.207031 1569.636719 C 336.660156 1554.015625 362.964844 1553.824219 370.957031 1569.636719 C 378.949219 1585.441406 385.101562 1648.152344 374.164062 1664.484375 Z M 374.164062 1664.484375 " fill-opacity="1" fill-rule="evenodd"/><g clip-path="url(#a1ef6b8a24)"><g clip-path="url(#e17279f254)"><path fill="#272727" d="M 374.164062 1656.128906 C 363.222656 1672.46875 313.332031 1675.117188 305.339844 1659.3125 C 297.347656 1643.5 315.265625 1577.617188 326.207031 1561.28125 C 336.660156 1545.660156 362.964844 1545.46875 370.957031 1561.28125 C 378.949219 1577.085938 385.101562 1639.796875 374.164062 1656.128906 Z M 374.164062 1656.128906 " fill-opacity="1" fill-rule="evenodd"/></g></g><path fill="#e1e1e1" d="M 492.964844 1664.058594 C 485.109375 1679.789062 436.550781 1679.679688 425.75 1663.925781 C 414.941406 1648.167969 420.28125 1585.269531 428.140625 1569.539062 C 435.996094 1553.804688 462.308594 1554.101562 472.890625 1569.539062 C 483.695312 1585.289062 500.820312 1648.324219 492.964844 1664.058594 Z M 492.964844 1664.058594 " fill-opacity="1" fill-rule="evenodd"/><g clip-path="url(#517aa4ab24)"><g clip-path="url(#1d72228a03)"><path fill="#272727" d="M 492.964844 1656.917969 C 485.109375 1672.652344 436.550781 1672.539062 425.75 1656.785156 C 414.941406 1641.03125 420.28125 1578.128906 428.140625 1562.398438 C 435.996094 1546.664062 462.308594 1546.960938 472.890625 1562.398438 C 483.695312 1578.148438 500.820312 1641.1875 492.964844 1656.917969 Z M 492.964844 1656.917969 " fill-opacity="1" fill-rule="evenodd"/></g></g><g clip-path="url(#63f9700c04)"><path fill="#5d7497" d="M 253.292969 979.738281 C 274.140625 899.113281 379.714844 940.46875 379.714844 940.46875 C 379.714844 940.46875 502.792969 864.089844 531.164062 954.925781 C 566.972656 1069.609375 590.289062 1319.976562 594.570312 1628.53125 C 594.894531 1651.828125 442.871094 1650.140625 399.148438 1650.140625 C 355.183594 1650.140625 200.488281 1652.191406 200.875 1632.175781 C 207.601562 1283.386719 223.488281 1095.023438 253.292969 979.738281 Z M 253.292969 979.738281 " fill-opacity="1" fill-rule="evenodd"/></g><g clip-path="url(#35eb4e5186)"><g clip-path="url(#ffed388685)"><path fill="#4b5e7c" d="M 413.890625 1020.550781 C 413.890625 1020.550781 416.140625 1120.621094 419.25 1240.996094 C 420.042969 1271.613281 420.890625 1303.535156 421.835938 1335.460938 C 426.515625 1492.898438 431.933594 1650.304688 431.933594 1650.304688 C 432.023438 1652.9375 434.238281 1655 436.871094 1654.90625 C 439.503906 1654.816406 441.566406 1652.601562 441.472656 1649.96875 C 441.472656 1649.96875 435.855469 1492.570312 429.496094 1335.195312 C 428.203125 1303.28125 426.8125 1271.375 425.457031 1240.777344 C 420.128906 1120.484375 415.367188 1020.5 415.367188 1020.5 C 415.351562 1020.09375 415.011719 1019.769531 414.601562 1019.789062 C 414.195312 1019.800781 413.878906 1020.140625 413.890625 1020.550781 Z M 331.503906 1020.660156 C 331.503906 1020.660156 325.421875 1120.578125 318.507812 1240.792969 C 316.75 1271.363281 314.9375 1303.25 313.222656 1335.144531 C 304.789062 1492.421875 297.101562 1649.730469 297.101562 1649.730469 C 296.96875 1652.363281 299.007812 1654.605469 301.636719 1654.730469 C 304.265625 1654.859375 306.503906 1652.824219 306.628906 1650.191406 C 306.628906 1650.191406 314.125 1492.871094 320.878906 1335.515625 C 322.246094 1303.605469 323.515625 1271.691406 324.707031 1241.089844 C 329.40625 1120.769531 332.976562 1020.734375 332.976562 1020.734375 C 332.996094 1020.324219 332.679688 1019.980469 332.273438 1019.957031 C 331.867188 1019.941406 331.523438 1020.253906 331.503906 1020.660156 Z M 379.484375 1019.324219 C 379.484375 1019.324219 377.117188 1119.394531 374.671875 1239.785156 C 374.050781 1270.402344 373.425781 1302.332031 372.902344 1334.265625 C 370.316406 1491.75 368.472656 1649.238281 368.472656 1649.238281 C 368.441406 1651.875 370.558594 1654.035156 373.1875 1654.0625 C 375.824219 1654.09375 377.984375 1651.976562 378.015625 1649.347656 C 378.015625 1649.347656 379.65625 1491.855469 380.5625 1334.351562 C 380.746094 1302.414062 380.824219 1270.480469 380.882812 1239.851562 C 381.105469 1119.441406 380.960938 1019.339844 380.960938 1019.339844 C 380.964844 1018.933594 380.636719 1018.597656 380.226562 1018.59375 C 379.816406 1018.589844 379.488281 1018.914062 379.484375 1019.324219 Z M 459.46875 1020.222656 C 459.46875 1020.222656 465.4375 1120.144531 473.019531 1240.320312 C 474.945312 1270.886719 476.976562 1302.757812 479.113281 1334.625 C 489.640625 1491.773438 500.90625 1648.871094 500.90625 1648.871094 C 501.097656 1651.5 503.382812 1653.476562 506.007812 1653.285156 C 508.636719 1653.097656 510.617188 1650.808594 510.425781 1648.183594 C 510.425781 1648.183594 498.957031 1491.097656 486.753906 1334.070312 C 484.28125 1302.230469 481.703125 1270.394531 479.210938 1239.871094 C 469.414062 1119.855469 460.9375 1020.113281 460.9375 1020.113281 C 460.90625 1019.710938 460.554688 1019.402344 460.148438 1019.433594 C 459.742188 1019.460938 459.4375 1019.816406 459.46875 1020.222656 Z M 292.027344 1020.324219 C 292.027344 1020.324219 282.660156 1119.988281 271.792969 1239.910156 C 269.027344 1270.40625 266.164062 1302.214844 263.402344 1334.035156 C 249.796875 1490.949219 236.925781 1647.921875 236.925781 1647.921875 C 236.710938 1650.550781 238.671875 1652.855469 241.296875 1653.070312 C 243.917969 1653.28125 246.222656 1651.324219 246.4375 1648.699219 C 246.4375 1648.699219 259.109375 1491.707031 271.039062 1334.660156 C 273.460938 1302.8125 275.773438 1270.957031 277.980469 1240.410156 C 286.636719 1120.308594 293.496094 1020.445312 293.496094 1020.445312 C 293.53125 1020.039062 293.226562 1019.683594 292.820312 1019.648438 C 292.414062 1019.617188 292.058594 1019.917969 292.027344 1020.324219 Z M 507.738281 1018.558594 C 507.738281 1018.558594 514.597656 1118.425781 523.257812 1238.523438 C 525.457031 1269.070312 527.773438 1300.921875 530.195312 1332.773438 C 542.128906 1489.816406 554.796875 1646.808594 554.796875 1646.808594 C 555.007812 1649.4375 557.3125 1651.394531 559.9375 1651.179688 C 562.5625 1650.964844 564.523438 1648.660156 564.308594 1646.035156 C 564.308594 1646.035156 551.4375 1489.0625 537.832031 1332.148438 C 535.070312 1300.328125 532.207031 1268.523438 529.445312 1238.019531 C 518.578125 1118.097656 509.207031 1018.441406 509.207031 1018.441406 C 509.175781 1018.035156 508.820312 1017.730469 508.410156 1017.765625 C 508.007812 1017.796875 507.707031 1018.15625 507.738281 1018.558594 Z M 507.738281 1018.558594 " fill-opacity="1" fill-rule="evenodd"/></g></g><path fill="#e1e1e1" d="M 262.445312 977.382812 C 230.195312 956.757812 264.4375 881.28125 266.027344 845.503906 C 269.363281 770.472656 257.789062 692.597656 275.679688 667.109375 C 312.75 614.292969 494.269531 623.152344 533.839844 674.070312 C 543.167969 686.070312 534.84375 810.21875 534.015625 861.636719 C 533.691406 881.589844 558.054688 966.535156 537.101562 982.585938 C 489.152344 1019.316406 323.796875 1016.617188 262.445312 977.382812 Z M 262.445312 977.382812 " fill-opacity="1" fill-rule="evenodd"/><path fill="#4b5e7c" d="M 284.527344 877.984375 L 510.097656 877.984375 L 510.097656 1025.542969 L 284.527344 1025.542969 Z M 284.527344 877.984375 " fill-opacity="1" fill-rule="evenodd"/><path fill="#e1e1e1" d="M 507.175781 882.675781 L 284.527344 882.675781 L 277.660156 887.28125 L 284.527344 1020.9375 L 507.175781 1020.9375 Z M 507.175781 882.675781 " fill-opacity="1" fill-rule="evenodd"/><path fill="#4b5e7c" d="M 276.640625 887.296875 L 504.945312 887.296875 L 504.945312 1025.558594 L 276.640625 1025.558594 Z M 276.640625 887.296875 " fill-opacity="1" fill-rule="evenodd"/><path fill="#fcaf93" d="M 335.988281 840.394531 C 335.988281 840.394531 285.277344 867.375 291.976562 885.300781 C 307.230469 926.113281 330.585938 973.933594 330.585938 973.933594 C 326.804688 986.632812 328.238281 1003.996094 332.792969 1020.964844 C 336.96875 1036.535156 349.386719 1035.40625 368.648438 1032.4375 C 383.601562 1030.132812 369.652344 1008.769531 372.859375 1008.136719 C 375.324219 1007.648438 378.796875 1025.773438 385.40625 1021.964844 C 390.441406 1019.0625 382.742188 996.75 380.21875 989.074219 C 375.730469 975.429688 364.039062 972.667969 359.566406 960.113281 C 359.566406 960.113281 351.128906 883.859375 335.988281 840.394531 Z M 335.988281 840.394531 " fill-opacity="1" fill-rule="evenodd"/><path fill="#e1e1e1" d="M 286.945312 732.925781 C 270.300781 736.839844 270.78125 799.539062 288.011719 872.851562 C 297.523438 913.332031 314.339844 975.332031 314.339844 975.332031 L 365.449219 962.40625 C 365.449219 962.40625 357.878906 899.375 348.3125 858.667969 C 331.082031 785.355469 303.582031 729.011719 286.945312 732.925781 Z M 286.945312 732.925781 " fill-opacity="1" fill-rule="evenodd"/><path fill="#e1e1e1" d="M 332.898438 913.332031 C 349.414062 908.90625 347 846.25 327.515625 773.503906 C 316.757812 733.335938 292.960938 675.703125 292.960938 675.703125 C 292.960938 675.703125 253.277344 686.386719 249.878906 701.6875 C 245.667969 720.660156 252.550781 750.058594 267.679688 789.542969 C 294.625 859.871094 316.390625 917.757812 332.898438 913.332031 Z M 332.898438 913.332031 " fill-opacity="1" fill-rule="evenodd"/><path fill="#fcaf93" d="M 460.023438 839.445312 C 460.023438 839.445312 510.734375 866.421875 504.035156 884.351562 C 488.78125 925.164062 465.425781 972.984375 465.425781 972.984375 C 469.207031 985.679688 467.773438 1003.046875 463.21875 1020.015625 C 459.039062 1035.585938 446.625 1034.457031 427.363281 1031.488281 C 412.410156 1029.183594 426.359375 1007.816406 423.152344 1007.1875 C 420.6875 1006.699219 417.210938 1024.824219 410.605469 1021.015625 C 405.570312 1018.113281 413.269531 995.796875 415.792969 988.125 C 420.28125 974.476562 431.972656 971.71875 436.445312 959.164062 C 436.445312 959.164062 444.882812 882.90625 460.023438 839.445312 Z M 460.023438 839.445312 " fill-opacity="1" fill-rule="evenodd"/><path fill="#e1e1e1" d="M 509.066406 731.976562 C 525.707031 735.890625 525.230469 798.589844 508 871.902344 C 498.484375 912.382812 484.65625 974.378906 484.65625 974.378906 L 430.5625 961.453125 C 430.5625 961.453125 438.128906 898.425781 447.699219 857.71875 C 464.929688 784.40625 492.429688 728.0625 509.066406 731.976562 Z M 509.066406 731.976562 " fill-opacity="1" fill-rule="evenodd"/><path fill="#e1e1e1" d="M 467.109375 912.378906 C 450.59375 907.953125 453.007812 845.296875 472.492188 772.550781 C 483.25 732.382812 507.046875 674.75 507.046875 674.75 C 507.046875 674.75 546.558594 687.800781 550.070312 703.59375 C 554.277344 722.570312 547.457031 749.105469 532.328125 788.589844 C 505.386719 858.917969 483.617188 916.804688 467.109375 912.378906 Z M 467.109375 912.378906 " fill-opacity="1" fill-rule="evenodd"/><g clip-path="url(#ae61042087)"><path fill="#e1e1e1" d="M 397.148438 364.683594 C 329.457031 364.683594 279.027344 420.765625 274.496094 489.53125 C 270.714844 546.929688 250.101562 657.679688 397.242188 656.304688 C 549.628906 654.882812 524.382812 541.121094 519.800781 489.53125 C 513.707031 420.875 464.84375 364.683594 397.148438 364.683594 Z M 397.148438 364.683594 " fill-opacity="1" fill-rule="evenodd"/></g><path fill="#e1e1e1" d="M 397.148438 547.695312 C 349.777344 547.695312 232.328125 681.175781 243.246094 705.476562 C 258.425781 739.257812 317.472656 773.585938 359.84375 791.136719 C 378.113281 798.699219 377.390625 1091.511719 381.644531 1085.667969 C 470.429688 963.769531 467.113281 784.089844 494.066406 770.445312 C 529.796875 752.371094 539.277344 735.777344 554.78125 708.699219 C 568.058594 685.515625 444.519531 547.695312 397.148438 547.695312 Z M 397.148438 547.695312 " fill-opacity="1" fill-rule="evenodd"/><path fill="#272727" d="M 243.246094 705.476562 C 249.398438 719.878906 260.449219 733.945312 275.222656 746.652344 C 287.601562 757.300781 302.59375 766.953125 319.371094 775.183594 C 328.167969 779.402344 337.804688 783.390625 349.5 786.210938 C 358.660156 788.425781 369.078125 789.941406 381.28125 790.414062 C 394.757812 790.949219 410.425781 790.199219 429.03125 787.671875 C 442.917969 785.792969 458.425781 782.894531 475.90625 778.835938 C 458.316406 782.179688 442.726562 784.410156 428.8125 785.808594 C 410.304688 787.660156 394.78125 787.941406 381.445312 787.121094 C 369.507812 786.398438 359.347656 784.757812 350.382812 782.570312 C 338.957031 779.789062 329.46875 776.136719 320.832031 772.097656 C 313.066406 768.539062 305.6875 764.628906 298.742188 760.496094 C 287.394531 753.742188 277.230469 746.300781 268.578125 738.359375 C 257.363281 728.066406 248.675781 716.960938 243.246094 705.476562 Z M 243.246094 705.476562 " fill-opacity="1" fill-rule="evenodd"/><path fill="#272727" d="M 361.914062 789.164062 C 363.449219 790.910156 364.773438 798.804688 366.046875 810.328125 C 366.464844 814.125 366.886719 818.316406 367.308594 822.816406 C 367.558594 825.488281 367.808594 828.28125 368.078125 831.152344 C 368.503906 835.597656 368.941406 840.242188 369.402344 845.039062 C 370.050781 851.777344 370.75 858.789062 371.394531 865.90625 C 372.34375 876.351562 373.261719 887 373.964844 897.246094 C 373.777344 884.382812 373.410156 870.886719 372.742188 857.929688 C 372.464844 852.558594 372.144531 847.292969 371.746094 842.203125 C 371.464844 838.621094 371.140625 835.128906 370.785156 831.757812 C 370.472656 828.75 370.125 825.847656 369.765625 823.070312 C 369.15625 818.371094 368.511719 814.003906 367.847656 810.070312 C 365.890625 798.46875 363.832031 790.601562 362.15625 788.9375 C 362.09375 788.867188 361.988281 788.855469 361.917969 788.921875 C 361.851562 788.988281 361.851562 789.097656 361.914062 789.164062 Z M 361.914062 789.164062 " fill-opacity="1" fill-rule="evenodd"/><path fill="#272727" d="M 438.125 964.492188 C 446.328125 940.753906 452.636719 919.710938 457.546875 901.058594 C 461.789062 884.945312 465.007812 870.632812 467.59375 857.929688 C 469.550781 848.328125 471.140625 839.652344 472.53125 831.824219 C 473.660156 825.488281 474.664062 819.699219 475.609375 814.433594 C 477.757812 802.484375 479.675781 793.257812 482.558594 786.25 C 485.363281 779.414062 489.027344 774.742188 494.730469 771.761719 C 508.910156 764.296875 518.933594 757.152344 526.789062 749.484375 C 536.339844 740.167969 542.675781 730.125 549.5 717.941406 L 550.4375 716.25 L 549.425781 717.894531 C 542.167969 729.703125 535.460938 739.382812 525.652344 748.273438 C 517.648438 755.527344 507.585938 762.253906 493.402344 769.128906 C 486.960938 772.296875 482.660156 777.347656 479.386719 784.90625 C 477.078125 790.222656 475.261719 796.804688 473.578125 804.859375 C 472.050781 812.191406 470.613281 820.746094 468.949219 830.710938 C 467.101562 841.773438 464.980469 854.585938 462.085938 869.355469 C 460.347656 878.21875 458.351562 887.792969 455.984375 898.144531 C 451.550781 917.496094 445.851562 939.503906 438.125 964.492188 Z M 438.125 964.492188 " fill-opacity="1" fill-rule="evenodd"/><path fill="#4b5e7c" d="M 379.984375 423.972656 C 379.984375 423.972656 303.015625 484.035156 309.175781 534.476562 C 315.335938 584.921875 357.550781 621.328125 403.394531 615.726562 C 449.238281 610.125 481.457031 564.621094 475.296875 514.179688 C 469.136719 463.734375 379.984375 423.972656 379.984375 423.972656 Z M 379.984375 423.972656 " fill-opacity="1" fill-rule="evenodd"/><path fill="#fcaf93" d="M 382.496094 444.554688 C 372.816406 446 304.117188 493.050781 309.886719 540.289062 C 315.652344 587.523438 357.550781 621.328125 403.394531 615.726562 C 449.238281 610.121094 481.773438 567.226562 476.007812 519.988281 C 470.242188 472.753906 394.890625 442.703125 382.496094 444.554688 Z M 382.496094 444.554688 " fill-opacity="1" fill-rule="evenodd"/><path fill="#ffffff" d="M 865.519531 97.714844 C 865.074219 97.851562 864.644531 98.023438 864.203125 98.175781 C 863.597656 93.378906 862.554688 88.566406 861.007812 83.796875 C 847.710938 42.757812 803.65625 20.269531 762.617188 33.566406 C 744.449219 39.460938 729.921875 51.378906 720.519531 66.386719 C 691.25 37.558594 647.339844 25.601562 605.546875 39.144531 C 545.773438 58.515625 513.019531 122.675781 532.394531 182.460938 C 533.714844 186.539062 535.261719 190.488281 536.992188 194.316406 C 512.664062 214.074219 501.679688 247.441406 511.921875 279.039062 C 525.21875 320.078125 569.269531 342.566406 610.3125 329.269531 C 612.6875 328.5 614.992188 327.613281 617.242188 326.640625 C 633.652344 361.90625 674.148438 380.214844 712.09375 367.921875 C 738.796875 359.269531 757.625 337.59375 763.878906 312.207031 C 780.703125 319.492188 800.144531 320.929688 818.957031 314.835938 C 849.398438 304.96875 869.609375 278.183594 872.605469 248.261719 C 885.78125 251.210938 899.898438 250.796875 913.675781 246.335938 C 954.71875 233.03125 977.207031 188.984375 963.910156 147.945312 C 950.613281 106.902344 906.558594 84.410156 865.519531 97.714844 " fill-opacity="1" fill-rule="nonzero"/><path fill="#4b5e7c" d="M 865.519531 97.714844 L 864.511719 94.636719 C 863.945312 94.820312 863.507812 94.996094 863.175781 95.109375 L 864.203125 98.175781 L 867.414062 97.769531 C 866.78125 92.78125 865.695312 87.769531 864.082031 82.800781 C 858.511719 65.605469 847.742188 51.519531 834.085938 41.753906 C 820.429688 31.980469 803.878906 26.511719 786.714844 26.503906 C 778.402344 26.503906 769.945312 27.792969 761.617188 30.488281 C 742.707031 36.617188 727.566406 49.042969 717.78125 64.667969 L 720.519531 66.386719 L 722.789062 64.082031 C 701.070312 42.699219 671.539062 30.34375 640.621094 30.34375 C 628.675781 30.34375 616.519531 32.1875 604.558594 36.066406 C 579.820312 44.082031 559.5625 59.570312 545.507812 79.21875 C 531.453125 98.863281 523.582031 122.671875 523.582031 147.355469 C 523.582031 159.308594 525.433594 171.476562 529.3125 183.453125 C 530.675781 187.664062 532.265625 191.71875 534.042969 195.644531 L 536.992188 194.316406 L 534.953125 191.800781 C 516.027344 207.175781 504.863281 230.4375 504.859375 254.957031 C 504.859375 263.257812 506.148438 271.710938 508.84375 280.03125 C 514.410156 297.222656 525.1875 311.316406 538.84375 321.082031 C 552.5 330.855469 569.050781 336.324219 586.210938 336.324219 C 594.527344 336.324219 602.976562 335.042969 611.308594 332.34375 C 613.792969 331.535156 616.191406 330.621094 618.523438 329.609375 L 617.242188 326.640625 L 614.308594 328.003906 C 627.808594 357 656.898438 374.976562 688.007812 374.976562 C 696.316406 374.976562 704.765625 373.695312 713.085938 370.996094 C 740.894531 361.984375 760.519531 339.40625 767.019531 312.976562 L 763.878906 312.207031 L 762.589844 315.175781 C 772.671875 319.535156 783.652344 321.882812 794.894531 321.882812 C 803.195312 321.882812 811.636719 320.601562 819.953125 317.910156 C 835.789062 312.777344 849 303.226562 858.605469 291.078125 C 868.222656 278.925781 874.265625 264.167969 875.828125 248.585938 L 872.605469 248.261719 L 871.898438 251.421875 C 877.671875 252.710938 883.609375 253.386719 889.628906 253.386719 C 897.921875 253.386719 906.363281 252.101562 914.675781 249.410156 C 931.871094 243.839844 945.960938 233.0625 955.726562 219.40625 C 965.496094 205.757812 970.972656 189.207031 970.972656 172.035156 C 970.972656 163.722656 969.683594 155.265625 966.984375 146.945312 C 961.414062 129.753906 950.644531 115.660156 936.988281 105.894531 C 923.328125 96.121094 906.78125 90.652344 889.609375 90.652344 C 881.304688 90.652344 872.84375 91.933594 864.519531 94.636719 L 864.511719 94.636719 L 865.519531 97.714844 L 866.515625 100.789062 C 874.191406 98.300781 881.96875 97.121094 889.609375 97.121094 C 905.402344 97.121094 920.644531 102.152344 933.222656 111.15625 C 945.796875 120.152344 955.695312 133.09375 960.832031 148.9375 C 963.320312 156.609375 964.503906 164.394531 964.503906 172.035156 C 964.503906 187.824219 959.460938 203.070312 950.464844 215.648438 C 941.464844 228.21875 928.527344 238.117188 912.683594 243.253906 C 905.023438 245.734375 897.261719 246.917969 889.628906 246.917969 C 884.089844 246.917969 878.625 246.296875 873.3125 245.109375 C 872.410156 244.90625 871.460938 245.105469 870.714844 245.640625 C 869.964844 246.183594 869.484375 247.023438 869.390625 247.941406 C 867.957031 262.277344 862.390625 275.871094 853.535156 287.058594 C 844.683594 298.246094 832.554688 307.019531 817.957031 311.757812 C 810.289062 314.242188 802.53125 315.417969 794.894531 315.417969 C 784.554688 315.417969 774.449219 313.257812 765.164062 309.238281 C 764.289062 308.859375 763.292969 308.882812 762.441406 309.308594 C 761.59375 309.730469 760.96875 310.515625 760.742188 311.429688 C 754.738281 335.78125 736.691406 356.550781 711.097656 364.84375 C 703.421875 367.328125 695.652344 368.507812 688.007812 368.507812 C 659.394531 368.507812 632.578125 351.945312 620.171875 325.277344 C 619.4375 323.691406 617.570312 322.984375 615.964844 323.671875 C 613.792969 324.605469 611.582031 325.453125 609.3125 326.191406 C 601.636719 328.675781 593.863281 329.855469 586.210938 329.855469 C 570.425781 329.855469 555.183594 324.820312 542.609375 315.820312 C 530.03125 306.824219 520.132812 293.882812 514.996094 278.039062 C 512.507812 270.363281 511.328125 262.59375 511.328125 254.957031 C 511.328125 232.40625 521.617188 210.96875 539.03125 196.824219 C 540.167969 195.902344 540.542969 194.316406 539.9375 192.984375 C 538.253906 189.257812 536.753906 185.421875 535.46875 181.460938 C 531.792969 170.128906 530.050781 158.644531 530.050781 147.355469 C 530.050781 124.046875 537.484375 101.546875 550.769531 82.980469 C 564.054688 64.417969 583.160156 49.800781 606.546875 42.21875 C 617.867188 38.550781 629.335938 36.8125 640.621094 36.8125 C 669.808594 36.804688 697.738281 48.484375 718.253906 68.695312 C 718.953125 69.382812 719.925781 69.71875 720.898438 69.597656 C 721.875 69.484375 722.746094 68.933594 723.261719 68.105469 C 732.285156 53.710938 746.1875 42.296875 763.613281 36.640625 C 771.289062 34.152344 779.066406 32.972656 786.714844 32.972656 C 802.5 32.972656 817.742188 38.011719 830.320312 47.007812 C 842.898438 56.007812 852.796875 68.945312 857.929688 84.796875 C 859.410156 89.363281 860.414062 93.972656 860.996094 98.578125 C 861.113281 99.539062 861.65625 100.398438 862.484375 100.914062 C 863.308594 101.425781 864.3125 101.546875 865.234375 101.238281 C 865.78125 101.054688 866.199219 100.890625 866.515625 100.78125 L 866.515625 100.789062 L 865.519531 97.714844 " fill-opacity="1" fill-rule="nonzero"/><path fill="#ffffff" d="M 810.566406 376.019531 C 816.253906 393.550781 806.644531 412.375 789.109375 418.050781 C 771.574219 423.738281 752.75 414.128906 747.070312 396.59375 C 741.386719 379.058594 751 360.242188 768.535156 354.554688 C 786.066406 348.875 804.890625 358.484375 810.566406 376.019531 " fill-opacity="1" fill-rule="nonzero"/><path fill="#4b5e7c" d="M 810.566406 376.019531 L 807.492188 377.011719 C 808.496094 380.105469 808.96875 383.234375 808.96875 386.308594 C 808.96875 392.660156 806.941406 398.796875 803.324219 403.863281 C 799.695312 408.929688 794.496094 412.902344 788.113281 414.976562 C 785.015625 415.980469 781.890625 416.453125 778.8125 416.453125 C 772.464844 416.453125 766.324219 414.425781 761.257812 410.804688 C 756.191406 407.179688 752.21875 401.980469 750.148438 395.597656 C 749.144531 392.5 748.667969 389.375 748.667969 386.296875 C 748.667969 379.949219 750.695312 373.808594 754.324219 368.742188 C 757.949219 363.683594 763.140625 359.703125 769.527344 357.632812 C 772.621094 356.628906 775.75 356.152344 778.824219 356.152344 C 785.175781 356.152344 791.3125 358.179688 796.378906 361.808594 C 801.445312 365.433594 805.417969 370.632812 807.492188 377.011719 L 810.566406 376.019531 L 813.644531 375.023438 C 811.140625 367.289062 806.292969 360.933594 800.144531 356.546875 C 794 352.148438 786.558594 349.683594 778.824219 349.683594 C 775.085938 349.683594 771.277344 350.265625 767.539062 351.480469 C 759.804688 353.980469 753.449219 358.839844 749.0625 364.976562 C 744.664062 371.125 742.199219 378.570312 742.199219 386.296875 C 742.199219 390.042969 742.78125 393.847656 743.996094 397.59375 C 746.496094 405.324219 751.355469 411.671875 757.492188 416.0625 C 763.640625 420.457031 771.082031 422.921875 778.8125 422.921875 C 782.550781 422.921875 786.363281 422.339844 790.109375 421.128906 C 797.839844 418.625 804.1875 413.777344 808.578125 407.628906 C 812.972656 401.484375 815.4375 394.042969 815.4375 386.308594 C 815.4375 382.570312 814.855469 378.761719 813.644531 375.023438 L 810.566406 376.019531 " fill-opacity="1" fill-rule="nonzero"/><path fill="#ffffff" d="M 759.949219 446.394531 C 762.925781 455.566406 757.898438 465.410156 748.726562 468.382812 C 739.554688 471.359375 729.710938 466.332031 726.738281 457.160156 C 723.769531 447.988281 728.789062 438.140625 737.96875 435.171875 C 747.140625 432.195312 756.980469 437.222656 759.949219 446.394531 " fill-opacity="1" fill-rule="nonzero"/><path fill="#4b5e7c" d="M 759.949219 446.394531 L 756.875 447.386719 C 757.347656 448.851562 757.574219 450.324219 757.574219 451.777344 C 757.574219 454.773438 756.617188 457.671875 754.902344 460.066406 C 753.191406 462.453125 750.746094 464.328125 747.726562 465.308594 C 746.269531 465.78125 744.789062 466.003906 743.34375 466.003906 C 740.351562 466.003906 737.449219 465.050781 735.054688 463.335938 C 732.667969 461.621094 730.792969 459.179688 729.820312 456.160156 C 729.339844 454.695312 729.117188 453.21875 729.117188 451.769531 C 729.117188 448.777344 730.074219 445.878906 731.785156 443.488281 C 733.496094 441.097656 735.941406 439.226562 738.960938 438.246094 C 740.425781 437.773438 741.898438 437.546875 743.351562 437.546875 C 746.34375 437.546875 749.242188 438.507812 751.632812 440.210938 C 754.027344 441.929688 755.894531 444.375 756.875 447.386719 L 759.949219 446.394531 L 763.027344 445.398438 C 761.617188 441.03125 758.871094 437.433594 755.398438 434.957031 C 751.929688 432.46875 747.722656 431.078125 743.351562 431.078125 C 741.234375 431.078125 739.082031 431.40625 736.96875 432.09375 C 732.597656 433.503906 729.003906 436.25 726.523438 439.726562 C 724.039062 443.191406 722.648438 447.398438 722.648438 451.769531 C 722.648438 453.886719 722.976562 456.042969 723.660156 458.152344 C 725.074219 462.515625 727.824219 466.117188 731.292969 468.597656 C 734.765625 471.082031 738.972656 472.472656 743.34375 472.472656 C 745.460938 472.472656 747.613281 472.144531 749.722656 471.460938 C 754.089844 470.046875 757.683594 467.296875 760.164062 463.824219 C 762.648438 460.355469 764.042969 456.148438 764.042969 451.777344 C 764.042969 449.660156 763.714844 447.507812 763.035156 445.398438 L 759.949219 446.394531 " fill-opacity="1" fill-rule="nonzero"/><path fill="#ffffff" d="M 723.835938 484.121094 C 725.410156 488.972656 722.75 494.175781 717.90625 495.75 C 713.054688 497.320312 707.851562 494.664062 706.277344 489.8125 C 704.703125 484.960938 707.363281 479.753906 712.214844 478.1875 C 717.058594 476.617188 722.269531 479.269531 723.835938 484.121094 " fill-opacity="1" fill-rule="nonzero"/><g clip-path="url(#b8cba4fc1a)"><path fill="#4b5e7c" d="M 723.835938 484.121094 L 720.761719 485.117188 C 720.964844 485.738281 721.058594 486.355469 721.058594 486.96875 C 721.058594 488.226562 720.652344 489.449219 719.925781 490.460938 C 719.199219 491.472656 718.183594 492.253906 716.902344 492.671875 C 716.289062 492.875 715.671875 492.964844 715.058594 492.964844 C 713.800781 492.964844 712.574219 492.558594 711.5625 491.839844 C 710.554688 491.113281 709.769531 490.089844 709.351562 488.8125 C 709.152344 488.195312 709.054688 487.574219 709.054688 486.960938 C 709.054688 485.707031 709.460938 484.480469 710.179688 483.46875 C 710.90625 482.464844 711.929688 481.675781 713.207031 481.265625 C 713.832031 481.0625 714.449219 480.96875 715.058594 480.96875 C 716.3125 480.96875 717.546875 481.371094 718.558594 482.09375 C 719.5625 482.820312 720.34375 483.839844 720.761719 485.117188 L 726.914062 483.121094 C 726.066406 480.492188 724.40625 478.320312 722.316406 476.832031 C 720.222656 475.332031 717.699219 474.5 715.058594 474.5 C 713.78125 474.5 712.480469 474.695312 711.214844 475.105469 C 708.589844 475.957031 706.414062 477.621094 704.925781 479.710938 C 703.429688 481.796875 702.585938 484.328125 702.585938 486.960938 C 702.585938 488.246094 702.789062 489.539062 703.199219 490.808594 C 704.046875 493.4375 705.707031 495.609375 707.800781 497.101562 C 709.890625 498.597656 712.421875 499.433594 715.058594 499.433594 C 716.332031 499.433594 717.628906 499.234375 718.898438 498.824219 C 721.527344 497.972656 723.699219 496.316406 725.1875 494.226562 C 726.6875 492.136719 727.527344 489.601562 727.527344 486.96875 C 727.527344 485.691406 727.332031 484.390625 726.921875 483.121094 L 723.835938 484.121094 " fill-opacity="1" fill-rule="nonzero"/></g><g fill="#5d7497" fill-opacity="1"><g transform="translate(564.538034, 182.414973)"><g><path d="M 30.421875 -21.265625 C 32.546875 -18.742188 33.609375 -15.914062 33.609375 -12.78125 C 33.535156 -9.164062 32.300781 -6.140625 29.90625 -3.703125 C 27.507812 -1.265625 24.59375 -0.046875 21.15625 -0.046875 L 6.921875 -0.046875 C 4.398438 -0.046875 2.921875 -0.734375 2.484375 -2.109375 C 2.273438 -2.722656 2.171875 -3.660156 2.171875 -4.921875 L 2.171875 -34.96875 C 2.171875 -35.832031 2.195312 -36.460938 2.25 -36.859375 C 2.300781 -37.253906 2.472656 -37.722656 2.765625 -38.265625 C 3.265625 -39.242188 4.671875 -39.734375 6.984375 -39.734375 L 20.625 -39.734375 C 23.9375 -39.734375 26.710938 -38.578125 28.953125 -36.265625 C 31.296875 -33.921875 32.46875 -31.101562 32.46875 -27.8125 C 32.46875 -25.4375 31.785156 -23.253906 30.421875 -21.265625 Z M 24.03125 -13.3125 C 24.03125 -14.175781 23.929688 -14.859375 23.734375 -15.359375 C 23.535156 -15.867188 23.203125 -16.234375 22.734375 -16.453125 C 22.015625 -16.742188 21.003906 -16.890625 19.703125 -16.890625 C 18.398438 -16.890625 17.421875 -17.140625 16.765625 -17.640625 C 16.117188 -18.148438 15.796875 -19.1875 15.796875 -20.75 C 15.796875 -22.320312 16.128906 -23.359375 16.796875 -23.859375 C 17.472656 -24.367188 18.585938 -24.625 20.140625 -24.625 C 21.578125 -24.625 22.441406 -25.003906 22.734375 -25.765625 C 22.835938 -26.160156 22.890625 -26.804688 22.890625 -27.703125 C 22.890625 -28.609375 22.59375 -29.238281 22 -29.59375 C 21.40625 -29.957031 20.515625 -30.140625 19.328125 -30.140625 L 11.75 -30.140625 L 11.75 -9.640625 L 20.625 -9.640625 C 22.894531 -9.640625 24.03125 -10.863281 24.03125 -13.3125 Z M 24.03125 -13.3125 "/></g></g></g><g fill="#5d7497" fill-opacity="1"><g transform="translate(599.498419, 182.414973)"><g><path d="M 29.65625 -17.671875 C 29.65625 -15.453125 29.101562 -13.8125 28 -12.75 C 26.90625 -11.6875 25.691406 -11.15625 24.359375 -11.15625 L 11.53125 -11.15625 C 11.53125 -10.144531 12.125 -9.296875 13.3125 -8.609375 C 14.5 -7.921875 15.691406 -7.578125 16.890625 -7.578125 C 18.984375 -7.578125 20.625 -7.796875 21.8125 -8.234375 L 22.40625 -8.4375 C 23.269531 -8.832031 23.992188 -9.03125 24.578125 -9.03125 C 25.734375 -9.03125 26.722656 -8.222656 27.546875 -6.609375 C 28.015625 -5.628906 28.25 -4.796875 28.25 -4.109375 C 28.25 -0.898438 24.40625 0.703125 16.71875 0.703125 C 14.050781 0.703125 11.679688 0.242188 9.609375 -0.671875 C 7.535156 -1.597656 5.921875 -2.816406 4.765625 -4.328125 C 2.492188 -7.253906 1.359375 -10.519531 1.359375 -14.125 C 1.359375 -18.675781 2.828125 -22.3125 5.765625 -25.03125 C 8.703125 -27.757812 12.375 -29.125 16.78125 -29.125 C 21.789062 -29.125 25.46875 -27.351562 27.8125 -23.8125 C 29.039062 -21.9375 29.65625 -19.890625 29.65625 -17.671875 Z M 18.234375 -16.078125 C 19.609375 -16.078125 20.296875 -16.65625 20.296875 -17.8125 C 20.296875 -18.632812 19.976562 -19.296875 19.34375 -19.796875 C 18.71875 -20.304688 17.816406 -20.5625 16.640625 -20.5625 C 15.472656 -20.5625 14.3125 -20.082031 13.15625 -19.125 C 12 -18.175781 11.421875 -17.160156 11.421875 -16.078125 Z M 18.234375 -16.078125 "/></g></g></g><g fill="#5d7497" fill-opacity="1"><g transform="translate(630.508176, 182.414973)"><g><path d="M 21.53125 -28.203125 C 22.21875 -27.984375 22.785156 -27.613281 23.234375 -27.09375 C 23.691406 -26.570312 23.921875 -25.734375 23.921875 -24.578125 C 23.921875 -23.421875 23.578125 -22.15625 22.890625 -20.78125 C 22.203125 -19.414062 21.210938 -18.734375 19.921875 -18.734375 C 19.265625 -18.734375 18.640625 -18.875 18.046875 -19.15625 C 17.453125 -19.445312 16.664062 -19.59375 15.6875 -19.59375 C 14.71875 -19.59375 13.804688 -19.25 12.953125 -18.5625 C 12.109375 -17.875 11.6875 -17.046875 11.6875 -16.078125 L 11.6875 -4.703125 C 11.6875 -3.878906 11.660156 -3.257812 11.609375 -2.84375 C 11.554688 -2.425781 11.382812 -1.945312 11.09375 -1.40625 C 10.550781 -0.46875 9.144531 0 6.875 0 C 5.144531 0 3.898438 -0.304688 3.140625 -0.921875 C 2.554688 -1.421875 2.234375 -2.195312 2.171875 -3.25 C 2.171875 -3.601562 2.171875 -4.125 2.171875 -4.8125 L 2.171875 -23.8125 C 2.171875 -24.644531 2.195312 -25.269531 2.25 -25.6875 C 2.300781 -26.101562 2.453125 -26.5625 2.703125 -27.0625 C 3.210938 -28.039062 4.617188 -28.53125 6.921875 -28.53125 C 9.085938 -28.53125 10.441406 -28.113281 10.984375 -27.28125 C 11.378906 -26.695312 11.578125 -26.101562 11.578125 -25.5 C 11.765625 -25.75 12.023438 -26.050781 12.359375 -26.40625 C 12.703125 -26.769531 13.429688 -27.257812 14.546875 -27.875 C 15.671875 -28.488281 16.65625 -28.796875 17.5 -28.796875 C 18.351562 -28.796875 19.066406 -28.75 19.640625 -28.65625 C 20.222656 -28.570312 20.851562 -28.421875 21.53125 -28.203125 Z M 21.53125 -28.203125 "/></g></g></g><g fill="#5d7497" fill-opacity="1"><g transform="translate(655.240218, 182.414973)"><g><path d="M 20.671875 -25.5 C 20.890625 -27.519531 22.316406 -28.53125 24.953125 -28.53125 C 26.359375 -28.53125 27.40625 -28.421875 28.09375 -28.203125 C 28.78125 -27.984375 29.257812 -27.601562 29.53125 -27.0625 C 29.800781 -26.519531 29.960938 -26.039062 30.015625 -25.625 C 30.066406 -25.207031 30.09375 -24.585938 30.09375 -23.765625 L 30.09375 -4.8125 C 30.09375 -3.988281 30.066406 -3.367188 30.015625 -2.953125 C 29.960938 -2.535156 29.804688 -2.054688 29.546875 -1.515625 C 29.046875 -0.578125 27.8125 -0.109375 25.84375 -0.109375 C 23.875 -0.109375 22.554688 -0.347656 21.890625 -0.828125 C 21.222656 -1.316406 20.835938 -2.035156 20.734375 -2.984375 C 19.398438 -1.066406 17.171875 -0.109375 14.046875 -0.109375 C 10.921875 -0.109375 8.023438 -1.53125 5.359375 -4.375 C 2.691406 -7.226562 1.359375 -10.539062 1.359375 -14.3125 C 1.359375 -18.082031 2.703125 -21.382812 5.390625 -24.21875 C 8.078125 -27.050781 11.023438 -28.46875 14.234375 -28.46875 C 15.460938 -28.46875 16.582031 -28.25 17.59375 -27.8125 C 18.601562 -27.382812 19.304688 -26.976562 19.703125 -26.59375 C 20.097656 -26.21875 20.421875 -25.851562 20.671875 -25.5 Z M 10.828125 -14.234375 C 10.828125 -13.046875 11.296875 -11.972656 12.234375 -11.015625 C 13.171875 -10.054688 14.304688 -9.578125 15.640625 -9.578125 C 16.972656 -9.578125 18.082031 -10.0625 18.96875 -11.03125 C 19.851562 -12.007812 20.296875 -13.082031 20.296875 -14.25 C 20.296875 -15.425781 19.867188 -16.519531 19.015625 -17.53125 C 18.171875 -18.539062 17.035156 -19.046875 15.609375 -19.046875 C 14.191406 -19.046875 13.039062 -18.539062 12.15625 -17.53125 C 11.269531 -16.519531 10.828125 -15.421875 10.828125 -14.234375 Z M 10.828125 -14.234375 "/></g></g></g><g fill="#5d7497" fill-opacity="1"><g transform="translate(687.494689, 182.414973)"><g><path d="M 18.9375 -14.28125 L 26.140625 -8.328125 C 27.046875 -7.578125 27.613281 -7.003906 27.84375 -6.609375 C 28.082031 -6.210938 28.203125 -5.832031 28.203125 -5.46875 C 28.203125 -4.601562 27.640625 -3.429688 26.515625 -1.953125 C 25.296875 -0.429688 24.21875 0.328125 23.28125 0.328125 C 22.476562 0.328125 21.375 -0.195312 19.96875 -1.25 L 19.4375 -1.625 C 18.601562 -2.3125 17.316406 -3.507812 15.578125 -5.21875 C 13.847656 -6.9375 12.535156 -8.15625 11.640625 -8.875 L 11.640625 -4.703125 C 11.640625 -3.878906 11.609375 -3.257812 11.546875 -2.84375 C 11.492188 -2.425781 11.328125 -1.945312 11.046875 -1.40625 C 10.578125 -0.46875 9.1875 0 6.875 0 C 4.601562 0 3.210938 -0.488281 2.703125 -1.46875 C 2.453125 -2 2.300781 -2.472656 2.25 -2.890625 C 2.195312 -3.304688 2.171875 -3.929688 2.171875 -4.765625 L 2.171875 -37.1875 C 2.171875 -38.007812 2.195312 -38.628906 2.25 -39.046875 C 2.300781 -39.460938 2.453125 -39.941406 2.703125 -40.484375 C 3.210938 -41.460938 4.617188 -41.953125 6.921875 -41.953125 C 8.660156 -41.953125 9.890625 -41.644531 10.609375 -41.03125 C 11.222656 -40.519531 11.546875 -39.722656 11.578125 -38.640625 C 11.617188 -38.316406 11.640625 -37.8125 11.640625 -37.125 L 11.640625 -19.96875 C 12.285156 -20.507812 13.265625 -21.429688 14.578125 -22.734375 C 15.898438 -24.035156 16.882812 -24.957031 17.53125 -25.5 L 18.1875 -25.921875 C 19.445312 -26.898438 20.523438 -27.390625 21.421875 -27.390625 C 22.328125 -27.390625 23.367188 -26.65625 24.546875 -25.1875 C 25.722656 -23.726562 26.3125 -22.582031 26.3125 -21.75 C 26.3125 -20.925781 25.640625 -19.953125 24.296875 -18.828125 Z M 18.9375 -14.28125 "/></g></g></g><g fill="#5d7497" fill-opacity="1"><g transform="translate(716.502072, 182.414973)"><g><path d="M 17.96875 -28.421875 C 21.570312 -28.421875 24.570312 -27.046875 26.96875 -24.296875 C 29.375 -21.554688 30.578125 -18.203125 30.578125 -14.234375 L 30.578125 -4.703125 C 30.578125 -3.878906 30.550781 -3.257812 30.5 -2.84375 C 30.445312 -2.425781 30.273438 -1.945312 29.984375 -1.40625 C 29.515625 -0.46875 28.125 0 25.8125 0 C 23.613281 0 22.242188 -0.46875 21.703125 -1.40625 C 21.410156 -1.945312 21.238281 -2.429688 21.1875 -2.859375 C 21.132812 -3.296875 21.109375 -3.945312 21.109375 -4.8125 L 21.109375 -14.28125 C 21.109375 -15.769531 20.691406 -16.925781 19.859375 -17.75 C 19.035156 -18.582031 17.984375 -19 16.703125 -19 C 15.421875 -19 14.289062 -18.609375 13.3125 -17.828125 C 12.34375 -17.054688 11.785156 -16.179688 11.640625 -15.203125 L 11.640625 -4.703125 C 11.640625 -3.878906 11.609375 -3.257812 11.546875 -2.84375 C 11.492188 -2.425781 11.328125 -1.945312 11.046875 -1.40625 C 10.578125 -0.46875 9.1875 0 6.875 0 C 4.601562 0 3.210938 -0.488281 2.703125 -1.46875 C 2.453125 -2 2.300781 -2.460938 2.25 -2.859375 C 2.195312 -3.265625 2.171875 -3.898438 2.171875 -4.765625 L 2.171875 -37.125 C 2.171875 -37.957031 2.195312 -38.582031 2.25 -39 C 2.300781 -39.414062 2.453125 -39.875 2.703125 -40.375 C 3.210938 -41.351562 4.617188 -41.84375 6.921875 -41.84375 C 9.203125 -41.84375 10.578125 -41.351562 11.046875 -40.375 C 11.328125 -39.832031 11.492188 -39.351562 11.546875 -38.9375 C 11.609375 -38.53125 11.640625 -37.910156 11.640625 -37.078125 L 11.640625 -25.109375 C 13.441406 -27.316406 15.550781 -28.421875 17.96875 -28.421875 Z M 17.96875 -28.421875 "/></g></g></g><g fill="#5d7497" fill-opacity="1"><g transform="translate(749.243617, 182.414973)"><g><path d="M 2.171875 -37.1875 C 2.171875 -38.007812 2.195312 -38.628906 2.25 -39.046875 C 2.300781 -39.460938 2.453125 -39.941406 2.703125 -40.484375 C 3.210938 -41.460938 4.617188 -41.953125 6.921875 -41.953125 C 9.128906 -41.953125 10.503906 -41.460938 11.046875 -40.484375 C 11.328125 -39.941406 11.492188 -39.453125 11.546875 -39.015625 C 11.609375 -38.585938 11.640625 -37.957031 11.640625 -37.125 L 11.640625 -12.0625 C 11.640625 -10.769531 11.742188 -9.953125 11.953125 -9.609375 C 12.171875 -9.265625 12.648438 -9.09375 13.390625 -9.09375 C 14.128906 -9.09375 14.625 -9.066406 14.875 -9.015625 C 15.132812 -8.960938 15.441406 -8.804688 15.796875 -8.546875 C 16.523438 -8.078125 16.890625 -6.796875 16.890625 -4.703125 C 16.890625 -2.429688 16.523438 -1.046875 15.796875 -0.546875 C 14.859375 0.109375 12.625 0.21875 9.09375 -0.21875 C 6.3125 -0.570312 4.507812 -1.492188 3.6875 -2.984375 C 2.675781 -4.742188 2.171875 -7.554688 2.171875 -11.421875 Z M 2.171875 -37.1875 "/></g></g></g><g fill="#5d7497" fill-opacity="1"><g transform="translate(766.94029, 182.414973)"><g><path d="M 20.671875 -25.5 C 20.890625 -27.519531 22.316406 -28.53125 24.953125 -28.53125 C 26.359375 -28.53125 27.40625 -28.421875 28.09375 -28.203125 C 28.78125 -27.984375 29.257812 -27.601562 29.53125 -27.0625 C 29.800781 -26.519531 29.960938 -26.039062 30.015625 -25.625 C 30.066406 -25.207031 30.09375 -24.585938 30.09375 -23.765625 L 30.09375 -4.8125 C 30.09375 -3.988281 30.066406 -3.367188 30.015625 -2.953125 C 29.960938 -2.535156 29.804688 -2.054688 29.546875 -1.515625 C 29.046875 -0.578125 27.8125 -0.109375 25.84375 -0.109375 C 23.875 -0.109375 22.554688 -0.347656 21.890625 -0.828125 C 21.222656 -1.316406 20.835938 -2.035156 20.734375 -2.984375 C 19.398438 -1.066406 17.171875 -0.109375 14.046875 -0.109375 C 10.921875 -0.109375 8.023438 -1.53125 5.359375 -4.375 C 2.691406 -7.226562 1.359375 -10.539062 1.359375 -14.3125 C 1.359375 -18.082031 2.703125 -21.382812 5.390625 -24.21875 C 8.078125 -27.050781 11.023438 -28.46875 14.234375 -28.46875 C 15.460938 -28.46875 16.582031 -28.25 17.59375 -27.8125 C 18.601562 -27.382812 19.304688 -26.976562 19.703125 -26.59375 C 20.097656 -26.21875 20.421875 -25.851562 20.671875 -25.5 Z M 10.828125 -14.234375 C 10.828125 -13.046875 11.296875 -11.972656 12.234375 -11.015625 C 13.171875 -10.054688 14.304688 -9.578125 15.640625 -9.578125 C 16.972656 -9.578125 18.082031 -10.0625 18.96875 -11.03125 C 19.851562 -12.007812 20.296875 -13.082031 20.296875 -14.25 C 20.296875 -15.425781 19.867188 -16.519531 19.015625 -17.53125 C 18.171875 -18.539062 17.035156 -19.046875 15.609375 -19.046875 C 14.191406 -19.046875 13.039062 -18.539062 12.15625 -17.53125 C 11.269531 -16.519531 10.828125 -15.421875 10.828125 -14.234375 Z M 10.828125 -14.234375 "/></g></g></g><g fill="#5d7497" fill-opacity="1"><g transform="translate(799.194768, 182.414973)"><g><path d="M 18.9375 -14.28125 L 26.140625 -8.328125 C 27.046875 -7.578125 27.613281 -7.003906 27.84375 -6.609375 C 28.082031 -6.210938 28.203125 -5.832031 28.203125 -5.46875 C 28.203125 -4.601562 27.640625 -3.429688 26.515625 -1.953125 C 25.296875 -0.429688 24.21875 0.328125 23.28125 0.328125 C 22.476562 0.328125 21.375 -0.195312 19.96875 -1.25 L 19.4375 -1.625 C 18.601562 -2.3125 17.316406 -3.507812 15.578125 -5.21875 C 13.847656 -6.9375 12.535156 -8.15625 11.640625 -8.875 L 11.640625 -4.703125 C 11.640625 -3.878906 11.609375 -3.257812 11.546875 -2.84375 C 11.492188 -2.425781 11.328125 -1.945312 11.046875 -1.40625 C 10.578125 -0.46875 9.1875 0 6.875 0 C 4.601562 0 3.210938 -0.488281 2.703125 -1.46875 C 2.453125 -2 2.300781 -2.472656 2.25 -2.890625 C 2.195312 -3.304688 2.171875 -3.929688 2.171875 -4.765625 L 2.171875 -37.1875 C 2.171875 -38.007812 2.195312 -38.628906 2.25 -39.046875 C 2.300781 -39.460938 2.453125 -39.941406 2.703125 -40.484375 C 3.210938 -41.460938 4.617188 -41.953125 6.921875 -41.953125 C 8.660156 -41.953125 9.890625 -41.644531 10.609375 -41.03125 C 11.222656 -40.519531 11.546875 -39.722656 11.578125 -38.640625 C 11.617188 -38.316406 11.640625 -37.8125 11.640625 -37.125 L 11.640625 -19.96875 C 12.285156 -20.507812 13.265625 -21.429688 14.578125 -22.734375 C 15.898438 -24.035156 16.882812 -24.957031 17.53125 -25.5 L 18.1875 -25.921875 C 19.445312 -26.898438 20.523438 -27.390625 21.421875 -27.390625 C 22.328125 -27.390625 23.367188 -26.65625 24.546875 -25.1875 C 25.722656 -23.726562 26.3125 -22.582031 26.3125 -21.75 C 26.3125 -20.925781 25.640625 -19.953125 24.296875 -18.828125 Z M 18.9375 -14.28125 "/></g></g></g><g fill="#5d7497" fill-opacity="1"><g transform="translate(828.202152, 182.414973)"><g><path d="M 14.828125 -0.109375 C 11.179688 -0.109375 8.160156 -1.488281 5.765625 -4.25 C 3.367188 -7.007812 2.171875 -10.375 2.171875 -14.34375 L 2.171875 -23.8125 C 2.171875 -24.675781 2.195312 -25.304688 2.25 -25.703125 C 2.300781 -26.109375 2.453125 -26.578125 2.703125 -27.109375 C 3.210938 -28.085938 4.617188 -28.578125 6.921875 -28.578125 C 9.453125 -28.578125 10.929688 -27.890625 11.359375 -26.515625 C 11.578125 -25.941406 11.6875 -25.023438 11.6875 -23.765625 L 11.6875 -14.28125 C 11.6875 -12.800781 12.109375 -11.644531 12.953125 -10.8125 C 13.804688 -9.988281 14.945312 -9.578125 16.375 -9.578125 C 17.800781 -9.578125 18.953125 -10.007812 19.828125 -10.875 C 20.710938 -11.738281 21.15625 -12.875 21.15625 -14.28125 L 21.15625 -23.875 C 21.15625 -24.695312 21.179688 -25.316406 21.234375 -25.734375 C 21.296875 -26.148438 21.472656 -26.628906 21.765625 -27.171875 C 22.234375 -28.109375 23.617188 -28.578125 25.921875 -28.578125 C 28.191406 -28.578125 29.582031 -28.085938 30.09375 -27.109375 C 30.34375 -26.578125 30.492188 -26.101562 30.546875 -25.6875 C 30.609375 -25.269531 30.640625 -24.644531 30.640625 -23.8125 L 30.640625 -4.65625 C 30.640625 -3.863281 30.609375 -3.257812 30.546875 -2.84375 C 30.492188 -2.425781 30.328125 -1.96875 30.046875 -1.46875 C 29.503906 -0.519531 28.113281 -0.046875 25.875 -0.046875 C 23.664062 -0.046875 22.3125 -0.484375 21.8125 -1.359375 C 21.445312 -1.960938 21.265625 -2.703125 21.265625 -3.578125 C 21.117188 -3.316406 20.796875 -2.953125 20.296875 -2.484375 C 19.796875 -2.015625 19.304688 -1.617188 18.828125 -1.296875 C 17.609375 -0.503906 16.273438 -0.109375 14.828125 -0.109375 Z M 14.828125 -0.109375 "/></g></g></g><g fill="#5d7497" fill-opacity="1"><g transform="translate(860.997817, 182.414973)"><g><path d="M 2.171875 -37.1875 C 2.171875 -38.007812 2.195312 -38.628906 2.25 -39.046875 C 2.300781 -39.460938 2.453125 -39.941406 2.703125 -40.484375 C 3.210938 -41.460938 4.617188 -41.953125 6.921875 -41.953125 C 9.128906 -41.953125 10.503906 -41.460938 11.046875 -40.484375 C 11.328125 -39.941406 11.492188 -39.453125 11.546875 -39.015625 C 11.609375 -38.585938 11.640625 -37.957031 11.640625 -37.125 L 11.640625 -12.0625 C 11.640625 -10.769531 11.742188 -9.953125 11.953125 -9.609375 C 12.171875 -9.265625 12.648438 -9.09375 13.390625 -9.09375 C 14.128906 -9.09375 14.625 -9.066406 14.875 -9.015625 C 15.132812 -8.960938 15.441406 -8.804688 15.796875 -8.546875 C 16.523438 -8.078125 16.890625 -6.796875 16.890625 -4.703125 C 16.890625 -2.429688 16.523438 -1.046875 15.796875 -0.546875 C 14.859375 0.109375 12.625 0.21875 9.09375 -0.21875 C 6.3125 -0.570312 4.507812 -1.492188 3.6875 -2.984375 C 2.675781 -4.742188 2.171875 -7.554688 2.171875 -11.421875 Z M 2.171875 -37.1875 "/></g></g></g><g fill="#5d7497" fill-opacity="1"><g transform="translate(613.401108, 258.100631)"><g><path d="M 19.15625 -19.921875 C 24.675781 -14.617188 28.59375 -10.628906 30.90625 -7.953125 C 32.09375 -6.617188 32.6875 -5.488281 32.6875 -4.5625 C 32.6875 -3.644531 31.960938 -2.5625 30.515625 -1.3125 C 29.078125 -0.0703125 27.894531 0.546875 26.96875 0.546875 C 26.050781 0.546875 24.945312 -0.210938 23.65625 -1.734375 L 11.75 -15.3125 L 11.75 -4.765625 C 11.75 -3.898438 11.71875 -3.265625 11.65625 -2.859375 C 11.601562 -2.460938 11.4375 -2 11.15625 -1.46875 C 10.644531 -0.488281 9.234375 0 6.921875 0 C 4.398438 0 2.921875 -0.6875 2.484375 -2.0625 C 2.273438 -2.632812 2.171875 -3.550781 2.171875 -4.8125 L 2.171875 -34.90625 C 2.171875 -35.738281 2.195312 -36.363281 2.25 -36.78125 C 2.300781 -37.195312 2.472656 -37.675781 2.765625 -38.21875 C 3.265625 -39.1875 4.671875 -39.671875 6.984375 -39.671875 C 9.503906 -39.671875 11 -39.003906 11.46875 -37.671875 C 11.65625 -37.054688 11.75 -36.117188 11.75 -34.859375 L 11.75 -24.515625 C 16.65625 -30.035156 20.625 -34.566406 23.65625 -38.109375 C 24.914062 -39.585938 26.015625 -40.328125 26.953125 -40.328125 C 27.890625 -40.328125 29.078125 -39.703125 30.515625 -38.453125 C 31.960938 -37.210938 32.6875 -36.128906 32.6875 -35.203125 C 32.6875 -34.285156 32.144531 -33.195312 31.0625 -31.9375 C 28.96875 -29.519531 25.722656 -26.195312 21.328125 -21.96875 Z M 19.15625 -19.921875 "/></g></g></g><g fill="#5d7497" fill-opacity="1"><g transform="translate(647.982667, 258.100631)"><g><path d="M 20.671875 -25.5 C 20.890625 -27.519531 22.316406 -28.53125 24.953125 -28.53125 C 26.359375 -28.53125 27.40625 -28.421875 28.09375 -28.203125 C 28.78125 -27.984375 29.257812 -27.601562 29.53125 -27.0625 C 29.800781 -26.519531 29.960938 -26.039062 30.015625 -25.625 C 30.066406 -25.207031 30.09375 -24.585938 30.09375 -23.765625 L 30.09375 -4.8125 C 30.09375 -3.988281 30.066406 -3.367188 30.015625 -2.953125 C 29.960938 -2.535156 29.804688 -2.054688 29.546875 -1.515625 C 29.046875 -0.578125 27.8125 -0.109375 25.84375 -0.109375 C 23.875 -0.109375 22.554688 -0.347656 21.890625 -0.828125 C 21.222656 -1.316406 20.835938 -2.035156 20.734375 -2.984375 C 19.398438 -1.066406 17.171875 -0.109375 14.046875 -0.109375 C 10.921875 -0.109375 8.023438 -1.53125 5.359375 -4.375 C 2.691406 -7.226562 1.359375 -10.539062 1.359375 -14.3125 C 1.359375 -18.082031 2.703125 -21.382812 5.390625 -24.21875 C 8.078125 -27.050781 11.023438 -28.46875 14.234375 -28.46875 C 15.460938 -28.46875 16.582031 -28.25 17.59375 -27.8125 C 18.601562 -27.382812 19.304688 -26.976562 19.703125 -26.59375 C 20.097656 -26.21875 20.421875 -25.851562 20.671875 -25.5 Z M 10.828125 -14.234375 C 10.828125 -13.046875 11.296875 -11.972656 12.234375 -11.015625 C 13.171875 -10.054688 14.304688 -9.578125 15.640625 -9.578125 C 16.972656 -9.578125 18.082031 -10.0625 18.96875 -11.03125 C 19.851562 -12.007812 20.296875 -13.082031 20.296875 -14.25 C 20.296875 -15.425781 19.867188 -16.519531 19.015625 -17.53125 C 18.171875 -18.539062 17.035156 -19.046875 15.609375 -19.046875 C 14.191406 -19.046875 13.039062 -18.539062 12.15625 -17.53125 C 11.269531 -16.519531 10.828125 -15.421875 10.828125 -14.234375 Z M 10.828125 -14.234375 "/></g></g></g><g fill="#5d7497" fill-opacity="1"><g transform="translate(680.237145, 258.100631)"><g><path d="M 21.53125 -28.203125 C 22.21875 -27.984375 22.785156 -27.613281 23.234375 -27.09375 C 23.691406 -26.570312 23.921875 -25.734375 23.921875 -24.578125 C 23.921875 -23.421875 23.578125 -22.15625 22.890625 -20.78125 C 22.203125 -19.414062 21.210938 -18.734375 19.921875 -18.734375 C 19.265625 -18.734375 18.640625 -18.875 18.046875 -19.15625 C 17.453125 -19.445312 16.664062 -19.59375 15.6875 -19.59375 C 14.71875 -19.59375 13.804688 -19.25 12.953125 -18.5625 C 12.109375 -17.875 11.6875 -17.046875 11.6875 -16.078125 L 11.6875 -4.703125 C 11.6875 -3.878906 11.660156 -3.257812 11.609375 -2.84375 C 11.554688 -2.425781 11.382812 -1.945312 11.09375 -1.40625 C 10.550781 -0.46875 9.144531 0 6.875 0 C 5.144531 0 3.898438 -0.304688 3.140625 -0.921875 C 2.554688 -1.421875 2.234375 -2.195312 2.171875 -3.25 C 2.171875 -3.601562 2.171875 -4.125 2.171875 -4.8125 L 2.171875 -23.8125 C 2.171875 -24.644531 2.195312 -25.269531 2.25 -25.6875 C 2.300781 -26.101562 2.453125 -26.5625 2.703125 -27.0625 C 3.210938 -28.039062 4.617188 -28.53125 6.921875 -28.53125 C 9.085938 -28.53125 10.441406 -28.113281 10.984375 -27.28125 C 11.378906 -26.695312 11.578125 -26.101562 11.578125 -25.5 C 11.765625 -25.75 12.023438 -26.050781 12.359375 -26.40625 C 12.703125 -26.769531 13.429688 -27.257812 14.546875 -27.875 C 15.671875 -28.488281 16.65625 -28.796875 17.5 -28.796875 C 18.351562 -28.796875 19.066406 -28.75 19.640625 -28.65625 C 20.222656 -28.570312 20.851562 -28.421875 21.53125 -28.203125 Z M 21.53125 -28.203125 "/></g></g></g><g fill="#5d7497" fill-opacity="1"><g transform="translate(704.969187, 258.100631)"><g><path d="M 2.171875 -23.765625 C 2.171875 -24.585938 2.195312 -25.207031 2.25 -25.625 C 2.300781 -26.039062 2.453125 -26.519531 2.703125 -27.0625 C 3.210938 -28 4.617188 -28.46875 6.921875 -28.46875 C 8.660156 -28.46875 9.890625 -28.160156 10.609375 -27.546875 C 11.222656 -27.046875 11.546875 -26.269531 11.578125 -25.21875 C 11.617188 -24.863281 11.640625 -24.34375 11.640625 -23.65625 L 11.640625 -4.703125 C 11.640625 -3.878906 11.609375 -3.257812 11.546875 -2.84375 C 11.492188 -2.425781 11.328125 -1.945312 11.046875 -1.40625 C 10.578125 -0.46875 9.1875 0 6.875 0 C 4.601562 0 3.210938 -0.488281 2.703125 -1.46875 C 2.453125 -2 2.300781 -2.460938 2.25 -2.859375 C 2.195312 -3.265625 2.171875 -3.898438 2.171875 -4.765625 Z M 11.0625 -33.796875 C 10.789062 -33.273438 10.3125 -32.90625 9.625 -32.6875 C 8.945312 -32.46875 8.039062 -32.359375 6.90625 -32.359375 C 5.769531 -32.359375 4.859375 -32.46875 4.171875 -32.6875 C 3.484375 -32.90625 3.003906 -33.285156 2.734375 -33.828125 C 2.460938 -34.367188 2.300781 -34.847656 2.25 -35.265625 C 2.195312 -35.679688 2.171875 -36.300781 2.171875 -37.125 C 2.171875 -37.957031 2.195312 -38.582031 2.25 -39 C 2.300781 -39.414062 2.453125 -39.875 2.703125 -40.375 C 3.210938 -41.351562 4.617188 -41.84375 6.921875 -41.84375 C 9.203125 -41.84375 10.578125 -41.351562 11.046875 -40.375 C 11.328125 -39.832031 11.492188 -39.351562 11.546875 -38.9375 C 11.609375 -38.53125 11.640625 -37.910156 11.640625 -37.078125 C 11.640625 -36.242188 11.609375 -35.617188 11.546875 -35.203125 C 11.492188 -34.785156 11.332031 -34.316406 11.0625 -33.796875 Z M 11.0625 -33.796875 "/></g></g></g><g fill="#5d7497" fill-opacity="1"><g transform="translate(718.769338, 258.100631)"><g><path d="M 11.46875 -24.734375 C 13.164062 -27.296875 15.207031 -28.578125 17.59375 -28.578125 C 21.269531 -28.578125 24.007812 -27.007812 25.8125 -23.875 C 26.207031 -24.414062 26.6875 -24.984375 27.25 -25.578125 C 27.8125 -26.171875 28.703125 -26.816406 29.921875 -27.515625 C 31.148438 -28.222656 32.414062 -28.578125 33.71875 -28.578125 C 36.601562 -28.578125 39.019531 -27.46875 40.96875 -25.25 C 42.914062 -23.03125 43.890625 -19.359375 43.890625 -14.234375 L 43.890625 -4.765625 C 43.890625 -3.929688 43.863281 -3.304688 43.8125 -2.890625 C 43.757812 -2.472656 43.585938 -2 43.296875 -1.46875 C 42.828125 -0.488281 41.4375 0 39.125 0 C 36.851562 0 35.46875 -0.503906 34.96875 -1.515625 C 34.707031 -2.054688 34.550781 -2.535156 34.5 -2.953125 C 34.445312 -3.367188 34.421875 -3.988281 34.421875 -4.8125 L 34.421875 -14.28125 C 34.421875 -17.425781 33.300781 -19 31.0625 -19 C 29.800781 -19 28.941406 -18.582031 28.484375 -17.75 C 28.035156 -16.925781 27.8125 -15.753906 27.8125 -14.234375 L 27.8125 -4.765625 C 27.8125 -3.898438 27.785156 -3.265625 27.734375 -2.859375 C 27.679688 -2.460938 27.507812 -2 27.21875 -1.46875 C 26.71875 -0.488281 25.3125 0 23 0 C 20.726562 0 19.335938 -0.503906 18.828125 -1.515625 C 18.578125 -2.054688 18.425781 -2.535156 18.375 -2.953125 C 18.320312 -3.367188 18.296875 -3.988281 18.296875 -4.8125 L 18.296875 -14.28125 C 18.296875 -17.425781 17.175781 -19 14.9375 -19 C 12.769531 -19 11.6875 -17.425781 11.6875 -14.28125 L 11.6875 -4.703125 C 11.6875 -3.878906 11.660156 -3.257812 11.609375 -2.84375 C 11.554688 -2.425781 11.382812 -1.945312 11.09375 -1.40625 C 10.550781 -0.46875 9.144531 0 6.875 0 C 4.601562 0 3.210938 -0.488281 2.703125 -1.46875 C 2.453125 -2 2.300781 -2.460938 2.25 -2.859375 C 2.195312 -3.265625 2.171875 -3.898438 2.171875 -4.765625 L 2.171875 -23.8125 C 2.171875 -24.644531 2.195312 -25.269531 2.25 -25.6875 C 2.300781 -26.101562 2.472656 -26.5625 2.765625 -27.0625 C 3.304688 -28.039062 4.585938 -28.53125 6.609375 -28.53125 C 8.628906 -28.53125 9.941406 -28.203125 10.546875 -27.546875 C 11.160156 -26.898438 11.46875 -25.960938 11.46875 -24.734375 Z M 11.46875 -24.734375 "/></g></g></g><g fill="#5d7497" fill-opacity="1"><g transform="translate(764.82396, 258.100631)"><g><path d="M 20.671875 -25.5 C 20.890625 -27.519531 22.316406 -28.53125 24.953125 -28.53125 C 26.359375 -28.53125 27.40625 -28.421875 28.09375 -28.203125 C 28.78125 -27.984375 29.257812 -27.601562 29.53125 -27.0625 C 29.800781 -26.519531 29.960938 -26.039062 30.015625 -25.625 C 30.066406 -25.207031 30.09375 -24.585938 30.09375 -23.765625 L 30.09375 -4.8125 C 30.09375 -3.988281 30.066406 -3.367188 30.015625 -2.953125 C 29.960938 -2.535156 29.804688 -2.054688 29.546875 -1.515625 C 29.046875 -0.578125 27.8125 -0.109375 25.84375 -0.109375 C 23.875 -0.109375 22.554688 -0.347656 21.890625 -0.828125 C 21.222656 -1.316406 20.835938 -2.035156 20.734375 -2.984375 C 19.398438 -1.066406 17.171875 -0.109375 14.046875 -0.109375 C 10.921875 -0.109375 8.023438 -1.53125 5.359375 -4.375 C 2.691406 -7.226562 1.359375 -10.539062 1.359375 -14.3125 C 1.359375 -18.082031 2.703125 -21.382812 5.390625 -24.21875 C 8.078125 -27.050781 11.023438 -28.46875 14.234375 -28.46875 C 15.460938 -28.46875 16.582031 -28.25 17.59375 -27.8125 C 18.601562 -27.382812 19.304688 -26.976562 19.703125 -26.59375 C 20.097656 -26.21875 20.421875 -25.851562 20.671875 -25.5 Z M 10.828125 -14.234375 C 10.828125 -13.046875 11.296875 -11.972656 12.234375 -11.015625 C 13.171875 -10.054688 14.304688 -9.578125 15.640625 -9.578125 C 16.972656 -9.578125 18.082031 -10.0625 18.96875 -11.03125 C 19.851562 -12.007812 20.296875 -13.082031 20.296875 -14.25 C 20.296875 -15.425781 19.867188 -16.519531 19.015625 -17.53125 C 18.171875 -18.539062 17.035156 -19.046875 15.609375 -19.046875 C 14.191406 -19.046875 13.039062 -18.539062 12.15625 -17.53125 C 11.269531 -16.519531 10.828125 -15.421875 10.828125 -14.234375 Z M 10.828125 -14.234375 "/></g></g></g><g fill="#5d7497" fill-opacity="1"><g transform="translate(797.078438, 258.100631)"><g><path d="M 17.96875 -28.421875 C 21.570312 -28.421875 24.570312 -27.046875 26.96875 -24.296875 C 29.375 -21.554688 30.578125 -18.203125 30.578125 -14.234375 L 30.578125 -4.703125 C 30.578125 -3.878906 30.550781 -3.257812 30.5 -2.84375 C 30.445312 -2.425781 30.273438 -1.945312 29.984375 -1.40625 C 29.515625 -0.46875 28.125 0 25.8125 0 C 23.613281 0 22.242188 -0.46875 21.703125 -1.40625 C 21.410156 -1.945312 21.238281 -2.429688 21.1875 -2.859375 C 21.132812 -3.296875 21.109375 -3.945312 21.109375 -4.8125 L 21.109375 -14.28125 C 21.109375 -15.769531 20.691406 -16.925781 19.859375 -17.75 C 19.035156 -18.582031 17.984375 -19 16.703125 -19 C 15.421875 -19 14.289062 -18.609375 13.3125 -17.828125 C 12.34375 -17.054688 11.785156 -16.179688 11.640625 -15.203125 L 11.640625 -4.703125 C 11.640625 -3.878906 11.609375 -3.257812 11.546875 -2.84375 C 11.492188 -2.425781 11.328125 -1.945312 11.046875 -1.40625 C 10.578125 -0.46875 9.1875 0 6.875 0 C 4.601562 0 3.210938 -0.488281 2.703125 -1.46875 C 2.453125 -2 2.300781 -2.460938 2.25 -2.859375 C 2.195312 -3.265625 2.171875 -3.898438 2.171875 -4.765625 L 2.171875 -37.125 C 2.171875 -37.957031 2.195312 -38.582031 2.25 -39 C 2.300781 -39.414062 2.453125 -39.875 2.703125 -40.375 C 3.210938 -41.351562 4.617188 -41.84375 6.921875 -41.84375 C 9.203125 -41.84375 10.578125 -41.351562 11.046875 -40.375 C 11.328125 -39.832031 11.492188 -39.351562 11.546875 -38.9375 C 11.609375 -38.53125 11.640625 -37.910156 11.640625 -37.078125 L 11.640625 -25.109375 C 13.441406 -27.316406 15.550781 -28.421875 17.96875 -28.421875 Z M 17.96875 -28.421875 "/></g></g></g></svg>