<svg xmlns="http://www.w3.org/2000/svg" xmlns:xlink="http://www.w3.org/1999/xlink" width="1587" zoomAndPan="magnify" viewBox="0 0 1190.25 1683.749945" height="2245" preserveAspectRatio="xMidYMid meet" version="1.0"><defs><g/><clipPath id="31abd2128f"><path d="M 545 999 L 1189.5 999 L 1189.5 1365 L 545 1365 Z M 545 999 " clip-rule="nonzero"/></clipPath></defs><path fill="#f8fdfe" d="M 698.40625 826.464844 C 676.839844 833.652344 634.722656 923.753906 671.554688 1034.367188 C 708.386719 1144.980469 773.152344 1303.777344 833.511719 1266.480469 C 852.992188 1254.449219 843.453125 1123.210938 806.621094 1012.597656 C 769.789062 901.984375 719.972656 819.277344 698.40625 826.464844 Z M 698.40625 826.464844 " fill-opacity="1" fill-rule="evenodd"/><path fill="#f8fdfe" d="M 718.015625 1361.914062 L 234.617188 1351.050781 C 234.617188 1351.050781 232.660156 1282.914062 233.164062 1260.523438 C 236.269531 1121.597656 202.433594 881.023438 237.875 833.867188 C 311.289062 736.164062 661.355469 734.5625 733.800781 856.054688 C 748.601562 880.859375 718.015625 1361.914062 718.015625 1361.914062 Z M 718.015625 1361.914062 " fill-opacity="1" fill-rule="evenodd"/><path fill="#f8fdfe" d="M 250.953125 827.316406 C 294.628906 808.992188 309.078125 989.699219 258.480469 1144.488281 C 193.03125 1344.699219 12.207031 1374.878906 38.460938 1242.761719 C 75.25 1057.667969 188.871094 853.363281 250.953125 827.316406 Z M 250.953125 827.316406 " fill-opacity="1" fill-rule="evenodd"/><path fill="#5d7497" d="M 495.976562 947.886719 L 470.507812 923.296875 L 510.199219 882.164062 L 551.3125 921.867188 L 525.539062 948.578125 L 557.824219 1290.046875 L 518.730469 1364.460938 L 477.019531 1291.476562 Z M 495.976562 947.886719 " fill-opacity="1" fill-rule="evenodd"/><path fill="#f8fdfe" d="M 571.351562 773.09375 C 571.351562 773.09375 552.1875 937.40625 540.9375 955.132812 C 529.695312 972.847656 503.875 879.410156 503.875 879.410156 C 503.875 879.410156 481.074219 964.609375 472.785156 956.492188 C 448.414062 932.597656 351.910156 779.960938 351.910156 779.960938 " fill-opacity="1" fill-rule="evenodd"/><path fill="#5f5f5f" d="M 536.601562 954.933594 C 536.128906 954.46875 535.441406 953.738281 534.933594 953 C 531.5625 948.144531 527.441406 938.699219 523.351562 928.183594 C 514.6875 905.847656 506.339844 878.660156 506.339844 878.660156 C 506 877.5625 504.980469 876.824219 503.832031 876.84375 C 502.683594 876.855469 501.6875 877.640625 501.398438 878.746094 C 501.398438 878.746094 494.214844 905.582031 486.457031 927.644531 C 482.796875 938.027344 479.050781 947.335938 475.855469 952.125 C 475.316406 952.941406 474.542969 953.75 474.109375 954.179688 C 466.273438 946.386719 449.550781 927.035156 430.164062 904.023438 C 386.660156 852.363281 329.851562 782.292969 329.851562 782.292969 C 328.957031 781.199219 327.332031 781.019531 326.226562 781.917969 C 325.132812 782.8125 324.953125 784.4375 325.847656 785.53125 C 325.847656 785.53125 382.703125 855.648438 426.230469 907.332031 C 446.167969 931.003906 463.324219 950.820312 470.984375 958.328125 C 471.910156 959.234375 472.9375 959.609375 474 959.609375 C 475.074219 959.609375 476.277344 959.191406 477.503906 958.128906 C 479.679688 956.238281 482.355469 951.660156 485.0625 945.480469 C 492.117188 929.421875 500.164062 902.167969 504.042969 888.464844 C 508.472656 902.265625 517.726562 930.019531 525.441406 946.351562 C 528.367188 952.566406 531.1875 957.179688 533.398438 959.078125 C 534.679688 960.1875 535.941406 960.59375 537 960.574219 C 538.117188 960.539062 539.179688 960.109375 540.097656 959.046875 C 540.691406 958.339844 541.664062 956.25 542.714844 952.898438 C 545.5 944.042969 549.953125 925.308594 554.875 903.140625 C 566.933594 848.75 581.820312 773.589844 581.820312 773.589844 C 582.097656 772.199219 581.191406 770.847656 579.796875 770.570312 C 578.40625 770.296875 577.046875 771.203125 576.769531 772.59375 C 576.769531 772.59375 561.890625 847.675781 549.84375 902.023438 C 544.96875 924.003906 540.570312 942.582031 537.808594 951.363281 C 537.308594 952.953125 536.921875 954.171875 536.601562 954.933594 Z M 536.601562 954.933594 " fill-opacity="1" fill-rule="evenodd"/><path fill="#ffb698" d="M 527.746094 771.253906 L 499.328125 871.082031 L 391.976562 770.644531 L 411.324219 625.753906 L 505.375 625.753906 Z M 527.746094 771.253906 " fill-opacity="1" fill-rule="evenodd"/><path fill="#5f5f5f" d="M 274.46875 962.941406 L 234.828125 1197.054688 C 234.703125 1197.792969 234.875 1198.539062 235.292969 1199.148438 L 240.621094 1196.863281 C 240.621094 1196.863281 280.070312 963.890625 280.070312 963.890625 C 280.335938 962.347656 279.296875 960.878906 277.753906 960.613281 C 276.199219 960.351562 274.734375 961.394531 274.46875 962.941406 Z M 274.46875 962.941406 " fill-opacity="1" fill-rule="evenodd"/><path fill="#5f5f5f" d="M 687.765625 962.886719 L 727.40625 1196.996094 C 727.53125 1197.734375 727.359375 1198.480469 726.941406 1199.089844 L 721.613281 1196.804688 C 721.613281 1196.804688 682.164062 963.835938 682.164062 963.835938 C 681.898438 962.289062 682.9375 960.820312 684.480469 960.558594 C 686.035156 960.296875 687.5 961.339844 687.765625 962.886719 Z M 687.765625 962.886719 " fill-opacity="1" fill-rule="evenodd"/><path fill="#212121" d="M 519.722656 283.785156 C 526.304688 285.015625 535.519531 267.023438 590.765625 285.289062 C 727.640625 330.535156 695.175781 481.574219 673.789062 527.855469 C 623.601562 636.5 583.875 750.105469 464.457031 734.078125 C 345.027344 718.054688 265.796875 613.417969 259.964844 486.640625 C 255.367188 386.53125 311.867188 279.507812 443.917969 268.183594 C 500.332031 263.34375 509.167969 281.808594 519.722656 283.785156 Z M 519.722656 283.785156 " fill-opacity="1" fill-rule="evenodd"/><path fill="#ffb698" d="M 391.878906 720.414062 C 436.6875 741.964844 456.640625 754.449219 471.738281 756.972656 C 480.707031 758.476562 517.808594 740.519531 526.269531 738.609375 C 594.019531 723.324219 641 671.382812 650.035156 609.714844 C 667.496094 490.707031 619.152344 411.824219 590.035156 408.992188 C 571.808594 407.222656 580.417969 465.046875 340.996094 488.617188 C 310.53125 491.617188 316.660156 527.816406 312.507812 571.15625 C 306.289062 636.003906 329.519531 690.429688 391.878906 720.414062 Z M 391.878906 720.414062 " fill-opacity="1" fill-rule="evenodd"/><path fill="#ffb698" d="M 329.191406 559.691406 C 329.546875 561.414062 329.851562 563.148438 330.09375 564.890625 C 330.335938 566.632812 330.523438 568.375 330.648438 570.117188 C 330.777344 571.859375 330.84375 573.59375 330.855469 575.320312 C 330.863281 577.046875 330.8125 578.753906 330.703125 580.445312 C 330.597656 582.136719 330.429688 583.804688 330.203125 585.449219 C 329.976562 587.089844 329.691406 588.699219 329.351562 590.277344 C 329.011719 591.855469 328.613281 593.390625 328.164062 594.886719 C 327.710938 596.386719 327.203125 597.832031 326.644531 599.234375 C 326.085938 600.636719 325.476562 601.984375 324.8125 603.277344 C 324.152344 604.570312 323.441406 605.800781 322.6875 606.972656 C 321.929688 608.144531 321.128906 609.25 320.285156 610.289062 C 319.4375 611.328125 318.554688 612.296875 317.628906 613.195312 C 316.703125 614.09375 315.742188 614.914062 314.746094 615.660156 C 313.75 616.40625 312.722656 617.074219 311.664062 617.660156 C 310.609375 618.25 309.523438 618.757812 308.414062 619.179688 C 307.308594 619.605469 306.175781 619.945312 305.027344 620.199219 C 303.878906 620.457031 302.714844 620.628906 301.535156 620.714844 C 300.355469 620.800781 299.167969 620.800781 297.96875 620.714844 C 296.769531 620.628906 295.570312 620.460938 294.367188 620.203125 C 293.164062 619.949219 291.960938 619.609375 290.761719 619.1875 C 289.5625 618.761719 288.371094 618.257812 287.1875 617.671875 C 286.003906 617.082031 284.835938 616.417969 283.679688 615.671875 C 282.527344 614.925781 281.390625 614.105469 280.273438 613.207031 C 279.160156 612.3125 278.066406 611.34375 277 610.304688 C 275.933594 609.265625 274.898438 608.164062 273.890625 606.992188 C 272.886719 605.820312 271.914062 604.589844 270.976562 603.296875 C 270.039062 602.003906 269.144531 600.65625 268.285156 599.257812 C 267.425781 597.855469 266.613281 596.40625 265.839844 594.910156 C 265.070312 593.414062 264.347656 591.878906 263.671875 590.300781 C 262.992188 588.726562 262.367188 587.117188 261.792969 585.472656 C 261.214844 583.832031 260.695312 582.164062 260.222656 580.472656 C 259.753906 578.78125 259.339844 577.070312 258.984375 575.347656 C 258.625 573.621094 258.324219 571.886719 258.078125 570.144531 C 257.835938 568.402344 257.648438 566.660156 257.523438 564.917969 C 257.394531 563.175781 257.328125 561.441406 257.316406 559.714844 C 257.308594 557.992188 257.359375 556.28125 257.46875 554.589844 C 257.578125 552.898438 257.746094 551.230469 257.96875 549.585938 C 258.195312 547.945312 258.480469 546.335938 258.820312 544.757812 C 259.160156 543.179688 259.558594 541.644531 260.011719 540.148438 C 260.460938 538.652344 260.96875 537.203125 261.527344 535.800781 C 262.085938 534.398438 262.699219 533.050781 263.359375 531.757812 C 264.019531 530.46875 264.730469 529.234375 265.488281 528.0625 C 266.242188 526.890625 267.042969 525.785156 267.890625 524.746094 C 268.734375 523.707031 269.621094 522.738281 270.542969 521.839844 C 271.46875 520.945312 272.429688 520.121094 273.425781 519.375 C 274.421875 518.628906 275.449219 517.960938 276.507812 517.375 C 277.566406 516.785156 278.648438 516.28125 279.757812 515.855469 C 280.867188 515.433594 281.996094 515.089844 283.144531 514.835938 C 284.296875 514.578125 285.460938 514.40625 286.640625 514.320312 C 287.816406 514.234375 289.007812 514.234375 290.203125 514.320312 C 291.402344 514.40625 292.601562 514.574219 293.804688 514.832031 C 295.011719 515.085938 296.210938 515.425781 297.410156 515.847656 C 298.609375 516.273438 299.800781 516.777344 300.984375 517.367188 C 302.167969 517.953125 303.335938 518.617188 304.492188 519.363281 C 305.648438 520.109375 306.78125 520.929688 307.898438 521.828125 C 309.015625 522.722656 310.105469 523.691406 311.171875 524.730469 C 312.238281 525.769531 313.273438 526.875 314.28125 528.042969 C 315.289062 529.214844 316.257812 530.445312 317.195312 531.738281 C 318.132812 533.03125 319.03125 534.378906 319.886719 535.777344 C 320.746094 537.179688 321.558594 538.628906 322.332031 540.125 C 323.101562 541.621094 323.824219 543.15625 324.503906 544.734375 C 325.179688 546.308594 325.804688 547.917969 326.382812 549.5625 C 326.957031 551.203125 327.480469 552.871094 327.949219 554.5625 C 328.417969 556.253906 328.832031 557.964844 329.191406 559.691406 Z M 329.191406 559.691406 " fill-opacity="1" fill-rule="nonzero"/><path fill="#ffb698" d="M 644.574219 1359.753906 C 645.5625 1357.78125 598.113281 1306.019531 547.128906 1290.460938 C 496.144531 1274.90625 446.121094 1282.066406 445.542969 1303.320312 C 442.945312 1399.167969 505.898438 1302.234375 576.558594 1345.726562 C 596.316406 1357.890625 641.195312 1366.484375 644.574219 1359.753906 Z M 644.574219 1359.753906 " fill-opacity="1" fill-rule="evenodd"/><path fill="#f8fdfe" d="M 45.117188 1317.871094 C 31.859375 1288.179688 6.359375 1180.96875 164.65625 1238.179688 C 206.527344 1253.3125 468.671875 1281.769531 468.671875 1281.769531 L 448.445312 1361.898438 C 448.445312 1361.898438 65.242188 1362.929688 45.117188 1317.871094 Z M 45.117188 1317.871094 " fill-opacity="1" fill-rule="evenodd"/><path fill="#5f5f5f" d="M 993.84375 1375.324219 C 993.84375 1375.324219 481.828125 1375.324219 432.292969 1375.324219 C 431.28125 1375.324219 430.320312 1374.917969 429.613281 1374.195312 C 428.910156 1373.472656 428.53125 1372.492188 428.558594 1371.484375 C 428.667969 1367.6875 428.820312 1361.925781 428.929688 1358.203125 C 428.980469 1356.183594 430.632812 1354.574219 432.65625 1354.570312 C 483.375 1354.484375 1048.652344 1353.566406 1048.652344 1353.566406 Z M 993.84375 1375.324219 " fill-opacity="1" fill-rule="evenodd"/><g clip-path="url(#31abd2128f)"><path fill="#5f5f5f" d="M 1134.507812 1364.457031 L 545.035156 1364.457031 C 545.035156 1364.457031 591.15625 1069.9375 600.523438 1010.09375 C 601.480469 1004.035156 606.699219 999.558594 612.835938 999.558594 L 1177.09375 999.558594 C 1180.734375 999.558594 1184.191406 1001.152344 1186.558594 1003.921875 C 1188.925781 1006.6875 1189.960938 1010.355469 1189.398438 1013.945312 C 1178.808594 1081.566406 1134.507812 1364.457031 1134.507812 1364.457031 Z M 1134.507812 1364.457031 " fill-opacity="1" fill-rule="evenodd"/></g><path fill="#212121" d="M 1135.910156 1364.746094 C 1134.988281 1370.832031 1129.761719 1375.332031 1123.601562 1375.332031 L 576.164062 1375.332031 C 572.535156 1375.332031 569.082031 1373.75 566.714844 1370.992188 C 564.347656 1368.242188 563.304688 1364.589844 563.851562 1361 C 572.933594 1301.289062 607.667969 1073.019531 615.578125 1021.023438 C 616.5 1014.9375 621.730469 1010.4375 627.890625 1010.4375 C 698.257812 1010.4375 1094.269531 1010.4375 1175.324219 1010.4375 C 1178.957031 1010.4375 1182.40625 1012.023438 1184.765625 1014.78125 C 1187.132812 1017.53125 1188.183594 1021.183594 1187.636719 1024.773438 C 1178.554688 1084.484375 1143.824219 1312.75 1135.910156 1364.746094 Z M 1135.910156 1364.746094 " fill-opacity="1" fill-rule="evenodd"/><g fill="#f1f3f6" fill-opacity="1"><g transform="translate(636.736065, 1059.319448)"><g><path d="M 18.5 -12.9375 C 19.789062 -11.394531 20.4375 -9.671875 20.4375 -7.765625 C 20.394531 -5.566406 19.644531 -3.726562 18.1875 -2.25 C 16.726562 -0.769531 14.953125 -0.03125 12.859375 -0.03125 L 4.21875 -0.03125 C 2.675781 -0.03125 1.773438 -0.445312 1.515625 -1.28125 C 1.378906 -1.65625 1.3125 -2.226562 1.3125 -3 L 1.3125 -21.25 C 1.3125 -21.78125 1.328125 -22.164062 1.359375 -22.40625 C 1.398438 -22.644531 1.503906 -22.929688 1.671875 -23.265625 C 1.984375 -23.859375 2.84375 -24.15625 4.25 -24.15625 L 12.53125 -24.15625 C 14.550781 -24.15625 16.242188 -23.453125 17.609375 -22.046875 C 19.035156 -20.617188 19.75 -18.90625 19.75 -16.90625 C 19.75 -15.457031 19.332031 -14.132812 18.5 -12.9375 Z M 14.609375 -8.09375 C 14.609375 -8.625 14.546875 -9.039062 14.421875 -9.34375 C 14.304688 -9.65625 14.109375 -9.875 13.828125 -10 C 13.378906 -10.175781 12.757812 -10.265625 11.96875 -10.265625 C 11.1875 -10.265625 10.597656 -10.414062 10.203125 -10.71875 C 9.804688 -11.03125 9.609375 -11.660156 9.609375 -12.609375 C 9.609375 -13.566406 9.8125 -14.195312 10.21875 -14.5 C 10.625 -14.8125 11.296875 -14.96875 12.234375 -14.96875 C 13.117188 -14.96875 13.648438 -15.195312 13.828125 -15.65625 C 13.890625 -15.90625 13.921875 -16.300781 13.921875 -16.84375 C 13.921875 -17.394531 13.738281 -17.78125 13.375 -18 C 13.007812 -18.21875 12.46875 -18.328125 11.75 -18.328125 L 7.140625 -18.328125 L 7.140625 -5.859375 L 12.53125 -5.859375 C 13.914062 -5.859375 14.609375 -6.601562 14.609375 -8.09375 Z M 14.609375 -8.09375 "/></g></g></g><g fill="#f1f3f6" fill-opacity="1"><g transform="translate(657.989007, 1059.319448)"><g><path d="M 18.03125 -10.734375 C 18.03125 -9.390625 17.695312 -8.394531 17.03125 -7.75 C 16.363281 -7.101562 15.625 -6.78125 14.8125 -6.78125 L 7.015625 -6.78125 C 7.015625 -6.164062 7.375 -5.648438 8.09375 -5.234375 C 8.820312 -4.816406 9.546875 -4.609375 10.265625 -4.609375 C 11.535156 -4.609375 12.535156 -4.738281 13.265625 -5 L 13.625 -5.140625 C 14.144531 -5.378906 14.582031 -5.5 14.9375 -5.5 C 15.644531 -5.5 16.25 -5.003906 16.75 -4.015625 C 17.03125 -3.421875 17.171875 -2.914062 17.171875 -2.5 C 17.171875 -0.550781 14.835938 0.421875 10.171875 0.421875 C 8.546875 0.421875 7.101562 0.144531 5.84375 -0.40625 C 4.582031 -0.96875 3.597656 -1.707031 2.890625 -2.625 C 1.515625 -4.40625 0.828125 -6.394531 0.828125 -8.59375 C 0.828125 -11.351562 1.71875 -13.5625 3.5 -15.21875 C 5.289062 -16.875 7.523438 -17.703125 10.203125 -17.703125 C 13.253906 -17.703125 15.488281 -16.628906 16.90625 -14.484375 C 17.65625 -13.335938 18.03125 -12.085938 18.03125 -10.734375 Z M 11.09375 -9.765625 C 11.925781 -9.765625 12.34375 -10.117188 12.34375 -10.828125 C 12.34375 -11.328125 12.148438 -11.726562 11.765625 -12.03125 C 11.378906 -12.34375 10.828125 -12.5 10.109375 -12.5 C 9.398438 -12.5 8.691406 -12.207031 7.984375 -11.625 C 7.285156 -11.050781 6.9375 -10.429688 6.9375 -9.765625 Z M 11.09375 -9.765625 "/></g></g></g><g fill="#f1f3f6" fill-opacity="1"><g transform="translate(676.840307, 1059.319448)"><g><path d="M 13.09375 -17.140625 C 13.507812 -17.015625 13.851562 -16.789062 14.125 -16.46875 C 14.40625 -16.15625 14.546875 -15.644531 14.546875 -14.9375 C 14.546875 -14.238281 14.335938 -13.472656 13.921875 -12.640625 C 13.503906 -11.804688 12.898438 -11.390625 12.109375 -11.390625 C 11.710938 -11.390625 11.332031 -11.472656 10.96875 -11.640625 C 10.613281 -11.816406 10.140625 -11.90625 9.546875 -11.90625 C 8.953125 -11.90625 8.394531 -11.695312 7.875 -11.28125 C 7.363281 -10.863281 7.109375 -10.359375 7.109375 -9.765625 L 7.109375 -2.859375 C 7.109375 -2.359375 7.09375 -1.976562 7.0625 -1.71875 C 7.03125 -1.46875 6.925781 -1.179688 6.75 -0.859375 C 6.414062 -0.285156 5.554688 0 4.171875 0 C 3.117188 0 2.363281 -0.1875 1.90625 -0.5625 C 1.550781 -0.863281 1.351562 -1.332031 1.3125 -1.96875 C 1.3125 -2.1875 1.3125 -2.503906 1.3125 -2.921875 L 1.3125 -14.484375 C 1.3125 -14.984375 1.328125 -15.359375 1.359375 -15.609375 C 1.398438 -15.867188 1.492188 -16.148438 1.640625 -16.453125 C 1.953125 -17.046875 2.8125 -17.34375 4.21875 -17.34375 C 5.53125 -17.34375 6.351562 -17.085938 6.6875 -16.578125 C 6.925781 -16.234375 7.046875 -15.875 7.046875 -15.5 C 7.148438 -15.65625 7.304688 -15.84375 7.515625 -16.0625 C 7.722656 -16.28125 8.164062 -16.570312 8.84375 -16.9375 C 9.53125 -17.3125 10.128906 -17.5 10.640625 -17.5 C 11.160156 -17.5 11.59375 -17.472656 11.9375 -17.421875 C 12.289062 -17.367188 12.675781 -17.273438 13.09375 -17.140625 Z M 13.09375 -17.140625 "/></g></g></g><g fill="#f1f3f6" fill-opacity="1"><g transform="translate(691.875292, 1059.319448)"><g><path d="M 11.515625 -8.6875 L 15.890625 -5.0625 C 16.441406 -4.601562 16.785156 -4.253906 16.921875 -4.015625 C 17.066406 -3.773438 17.140625 -3.546875 17.140625 -3.328125 C 17.140625 -2.796875 16.800781 -2.082031 16.125 -1.1875 C 15.375 -0.257812 14.71875 0.203125 14.15625 0.203125 C 13.664062 0.203125 12.992188 -0.113281 12.140625 -0.75 L 11.8125 -0.984375 C 11.3125 -1.398438 10.53125 -2.128906 9.46875 -3.171875 C 8.414062 -4.210938 7.617188 -4.953125 7.078125 -5.390625 L 7.078125 -2.859375 C 7.078125 -2.359375 7.054688 -1.976562 7.015625 -1.71875 C 6.984375 -1.46875 6.882812 -1.179688 6.71875 -0.859375 C 6.425781 -0.285156 5.578125 0 4.171875 0 C 2.796875 0 1.953125 -0.296875 1.640625 -0.890625 C 1.492188 -1.210938 1.398438 -1.5 1.359375 -1.75 C 1.328125 -2.007812 1.3125 -2.390625 1.3125 -2.890625 L 1.3125 -22.609375 C 1.3125 -23.109375 1.328125 -23.484375 1.359375 -23.734375 C 1.398438 -23.992188 1.492188 -24.285156 1.640625 -24.609375 C 1.953125 -25.203125 2.8125 -25.5 4.21875 -25.5 C 5.269531 -25.5 6.015625 -25.3125 6.453125 -24.9375 C 6.828125 -24.632812 7.023438 -24.15625 7.046875 -23.5 C 7.066406 -23.300781 7.078125 -22.992188 7.078125 -22.578125 L 7.078125 -12.140625 C 7.472656 -12.472656 8.066406 -13.03125 8.859375 -13.8125 C 9.660156 -14.601562 10.257812 -15.164062 10.65625 -15.5 L 11.0625 -15.765625 C 11.820312 -16.359375 12.476562 -16.65625 13.03125 -16.65625 C 13.582031 -16.65625 14.210938 -16.207031 14.921875 -15.3125 C 15.640625 -14.425781 16 -13.726562 16 -13.21875 C 16 -12.71875 15.59375 -12.128906 14.78125 -11.453125 Z M 11.515625 -8.6875 "/></g></g></g><g fill="#f1f3f6" fill-opacity="1"><g transform="translate(709.509311, 1059.319448)"><g><path d="M 12.5625 -15.5 C 12.695312 -16.726562 13.566406 -17.34375 15.171875 -17.34375 C 16.023438 -17.34375 16.660156 -17.273438 17.078125 -17.140625 C 17.492188 -17.015625 17.785156 -16.785156 17.953125 -16.453125 C 18.117188 -16.117188 18.21875 -15.828125 18.25 -15.578125 C 18.28125 -15.328125 18.296875 -14.953125 18.296875 -14.453125 L 18.296875 -2.921875 C 18.296875 -2.421875 18.28125 -2.046875 18.25 -1.796875 C 18.21875 -1.546875 18.125 -1.253906 17.96875 -0.921875 C 17.65625 -0.347656 16.898438 -0.0625 15.703125 -0.0625 C 14.515625 -0.0625 13.71875 -0.207031 13.3125 -0.5 C 12.90625 -0.800781 12.671875 -1.238281 12.609375 -1.8125 C 11.796875 -0.644531 10.4375 -0.0625 8.53125 -0.0625 C 6.632812 -0.0625 4.875 -0.925781 3.25 -2.65625 C 1.632812 -4.394531 0.828125 -6.410156 0.828125 -8.703125 C 0.828125 -10.992188 1.640625 -13 3.265625 -14.71875 C 4.898438 -16.445312 6.695312 -17.3125 8.65625 -17.3125 C 9.394531 -17.3125 10.070312 -17.175781 10.6875 -16.90625 C 11.300781 -16.644531 11.726562 -16.398438 11.96875 -16.171875 C 12.21875 -15.941406 12.414062 -15.71875 12.5625 -15.5 Z M 6.578125 -8.640625 C 6.578125 -7.921875 6.863281 -7.269531 7.4375 -6.6875 C 8.007812 -6.113281 8.703125 -5.828125 9.515625 -5.828125 C 10.328125 -5.828125 11 -6.117188 11.53125 -6.703125 C 12.070312 -7.296875 12.34375 -7.945312 12.34375 -8.65625 C 12.34375 -9.375 12.082031 -10.039062 11.5625 -10.65625 C 11.050781 -11.269531 10.359375 -11.578125 9.484375 -11.578125 C 8.617188 -11.578125 7.914062 -11.269531 7.375 -10.65625 C 6.84375 -10.039062 6.578125 -9.367188 6.578125 -8.640625 Z M 6.578125 -8.640625 "/></g></g></g><g fill="#f1f3f6" fill-opacity="1"><g transform="translate(729.117294, 1059.319448)"><g><path d="M 13.09375 -17.140625 C 13.507812 -17.015625 13.851562 -16.789062 14.125 -16.46875 C 14.40625 -16.15625 14.546875 -15.644531 14.546875 -14.9375 C 14.546875 -14.238281 14.335938 -13.472656 13.921875 -12.640625 C 13.503906 -11.804688 12.898438 -11.390625 12.109375 -11.390625 C 11.710938 -11.390625 11.332031 -11.472656 10.96875 -11.640625 C 10.613281 -11.816406 10.140625 -11.90625 9.546875 -11.90625 C 8.953125 -11.90625 8.394531 -11.695312 7.875 -11.28125 C 7.363281 -10.863281 7.109375 -10.359375 7.109375 -9.765625 L 7.109375 -2.859375 C 7.109375 -2.359375 7.09375 -1.976562 7.0625 -1.71875 C 7.03125 -1.46875 6.925781 -1.179688 6.75 -0.859375 C 6.414062 -0.285156 5.554688 0 4.171875 0 C 3.117188 0 2.363281 -0.1875 1.90625 -0.5625 C 1.550781 -0.863281 1.351562 -1.332031 1.3125 -1.96875 C 1.3125 -2.1875 1.3125 -2.503906 1.3125 -2.921875 L 1.3125 -14.484375 C 1.3125 -14.984375 1.328125 -15.359375 1.359375 -15.609375 C 1.398438 -15.867188 1.492188 -16.148438 1.640625 -16.453125 C 1.953125 -17.046875 2.8125 -17.34375 4.21875 -17.34375 C 5.53125 -17.34375 6.351562 -17.085938 6.6875 -16.578125 C 6.925781 -16.234375 7.046875 -15.875 7.046875 -15.5 C 7.148438 -15.65625 7.304688 -15.84375 7.515625 -16.0625 C 7.722656 -16.28125 8.164062 -16.570312 8.84375 -16.9375 C 9.53125 -17.3125 10.128906 -17.5 10.640625 -17.5 C 11.160156 -17.5 11.59375 -17.472656 11.9375 -17.421875 C 12.289062 -17.367188 12.675781 -17.273438 13.09375 -17.140625 Z M 13.09375 -17.140625 "/></g></g></g><g fill="#f1f3f6" fill-opacity="1"><g transform="translate(744.152279, 1059.319448)"><g><path d="M 17.4375 -17.140625 C 18.726562 -16.566406 19.375 -15.878906 19.375 -15.078125 C 19.375 -14.679688 19.285156 -14.304688 19.109375 -13.953125 C 18.941406 -13.597656 18.859375 -13.410156 18.859375 -13.390625 L 10.234375 5.890625 C 10.054688 6.304688 9.90625 6.625 9.78125 6.84375 C 9.664062 7.0625 9.472656 7.269531 9.203125 7.46875 C 8.941406 7.664062 8.613281 7.765625 8.21875 7.765625 C 7.832031 7.765625 7.253906 7.597656 6.484375 7.265625 C 5.191406 6.703125 4.546875 6.023438 4.546875 5.234375 C 4.546875 4.703125 5.597656 2.191406 7.703125 -2.296875 L 1.15625 -13.328125 C 0.71875 -14.046875 0.5 -14.582031 0.5 -14.9375 C 0.5 -15.644531 1.085938 -16.347656 2.265625 -17.046875 C 3.015625 -17.484375 3.597656 -17.703125 4.015625 -17.703125 C 4.429688 -17.703125 4.769531 -17.613281 5.03125 -17.4375 C 5.289062 -17.257812 5.484375 -17.078125 5.609375 -16.890625 C 5.734375 -16.710938 6.335938 -15.695312 7.421875 -13.84375 C 8.503906 -11.988281 9.539062 -10.257812 10.53125 -8.65625 C 10.632812 -9.007812 11.222656 -10.363281 12.296875 -12.71875 C 13.378906 -15.070312 13.957031 -16.328125 14.03125 -16.484375 C 14.113281 -16.640625 14.238281 -16.828125 14.40625 -17.046875 C 14.695312 -17.421875 15.097656 -17.609375 15.609375 -17.609375 C 16.128906 -17.609375 16.738281 -17.453125 17.4375 -17.140625 Z M 17.4375 -17.140625 "/></g></g></g><g fill="#f1f3f6" fill-opacity="1"><g transform="translate(764.023455, 1059.319448)"><g><path d="M 12.5625 -15.5 C 12.695312 -16.726562 13.566406 -17.34375 15.171875 -17.34375 C 16.023438 -17.34375 16.660156 -17.273438 17.078125 -17.140625 C 17.492188 -17.015625 17.785156 -16.785156 17.953125 -16.453125 C 18.117188 -16.117188 18.21875 -15.828125 18.25 -15.578125 C 18.28125 -15.328125 18.296875 -14.953125 18.296875 -14.453125 L 18.296875 -2.921875 C 18.296875 -2.421875 18.28125 -2.046875 18.25 -1.796875 C 18.21875 -1.546875 18.125 -1.253906 17.96875 -0.921875 C 17.65625 -0.347656 16.898438 -0.0625 15.703125 -0.0625 C 14.515625 -0.0625 13.71875 -0.207031 13.3125 -0.5 C 12.90625 -0.800781 12.671875 -1.238281 12.609375 -1.8125 C 11.796875 -0.644531 10.4375 -0.0625 8.53125 -0.0625 C 6.632812 -0.0625 4.875 -0.925781 3.25 -2.65625 C 1.632812 -4.394531 0.828125 -6.410156 0.828125 -8.703125 C 0.828125 -10.992188 1.640625 -13 3.265625 -14.71875 C 4.898438 -16.445312 6.695312 -17.3125 8.65625 -17.3125 C 9.394531 -17.3125 10.070312 -17.175781 10.6875 -16.90625 C 11.300781 -16.644531 11.726562 -16.398438 11.96875 -16.171875 C 12.21875 -15.941406 12.414062 -15.71875 12.5625 -15.5 Z M 6.578125 -8.640625 C 6.578125 -7.921875 6.863281 -7.269531 7.4375 -6.6875 C 8.007812 -6.113281 8.703125 -5.828125 9.515625 -5.828125 C 10.328125 -5.828125 11 -6.117188 11.53125 -6.703125 C 12.070312 -7.296875 12.34375 -7.945312 12.34375 -8.65625 C 12.34375 -9.375 12.082031 -10.039062 11.5625 -10.65625 C 11.050781 -11.269531 10.359375 -11.578125 9.484375 -11.578125 C 8.617188 -11.578125 7.914062 -11.269531 7.375 -10.65625 C 6.84375 -10.039062 6.578125 -9.367188 6.578125 -8.640625 Z M 6.578125 -8.640625 "/></g></g></g></svg>