<svg xmlns="http://www.w3.org/2000/svg" xmlns:xlink="http://www.w3.org/1999/xlink" width="1587" zoomAndPan="magnify" viewBox="0 0 1190.25 1683.749945" height="2245" preserveAspectRatio="xMidYMid meet" version="1.0"><defs><g/><clipPath id="5f20b59cf2"><path d="M 870.152344 1315.140625 L 942.878906 1315.140625 L 942.878906 1390 L 870.152344 1390 Z M 870.152344 1315.140625 " clip-rule="nonzero"/></clipPath><clipPath id="14d85e4317"><path d="M 942.519531 1346.929688 C 943.148438 1335.230469 942.011719 1323.769531 940.085938 1319.085938 C 938.121094 1314.3125 914.875 1314.3125 909.265625 1319.085938 C 905.707031 1322.117188 900.316406 1327.980469 894.703125 1334.902344 C 887.6875 1341.773438 878.53125 1354.105469 873.675781 1366.632812 C 872.335938 1369.613281 871.484375 1372.25 871.28125 1374.347656 C 869.992188 1380.035156 869.890625 1385.539062 871.597656 1390.335938 C 875.054688 1400.046875 922.019531 1399.882812 933.238281 1390.335938 C 941.257812 1383.511719 943.367188 1362.308594 942.519531 1346.929688 Z M 942.519531 1346.929688 " clip-rule="evenodd"/></clipPath><clipPath id="34c954113b"><path d="M 1023.011719 1322.308594 L 1103.640625 1322.308594 L 1103.640625 1405 L 1023.011719 1405 Z M 1023.011719 1322.308594 " clip-rule="nonzero"/></clipPath><clipPath id="2bffb0be56"><path d="M 1103.238281 1357.546875 C 1103.9375 1344.582031 1102.679688 1331.875 1100.542969 1326.679688 C 1098.367188 1321.390625 1072.597656 1321.390625 1066.375 1326.679688 C 1062.433594 1330.042969 1056.457031 1336.542969 1050.230469 1344.21875 C 1042.457031 1351.832031 1032.304688 1365.503906 1026.921875 1379.390625 C 1025.4375 1382.699219 1024.492188 1385.617188 1024.265625 1387.945312 C 1022.839844 1394.25 1022.726562 1400.347656 1024.617188 1405.667969 C 1028.453125 1416.429688 1080.515625 1416.25 1092.953125 1405.667969 C 1101.84375 1398.101562 1104.179688 1374.597656 1103.238281 1357.546875 Z M 1103.238281 1357.546875 " clip-rule="evenodd"/></clipPath><clipPath id="2218439c6d"><path d="M 876 759.367188 L 1121.828125 759.367188 L 1121.828125 1350.445312 L 876 1350.445312 Z M 876 759.367188 " clip-rule="nonzero"/></clipPath><clipPath id="2696f59cd2"><path d="M 884.585938 1338.988281 C 887.992188 1348.714844 961.566406 1356.238281 962.863281 1343.949219 C 970.042969 1275.84375 983.78125 889.78125 983.78125 889.78125 C 983.78125 889.78125 1027.773438 1279.464844 1034.40625 1343.734375 C 1034.941406 1348.953125 1105.203125 1354.914062 1106.207031 1344.316406 C 1115.015625 1251.253906 1128.96875 864.683594 1117.199219 769.621094 C 1114.550781 748.222656 999.847656 780.414062 999.847656 780.414062 C 999.847656 780.414062 878.261719 742.152344 877.6875 769.621094 C 874.6875 913.347656 876.671875 1316.394531 884.585938 1338.988281 Z M 884.585938 1338.988281 " clip-rule="evenodd"/></clipPath><clipPath id="a85b0ecd16"><path d="M 267.644531 1316.667969 L 333.652344 1316.667969 L 333.652344 1384 L 267.644531 1384 Z M 267.644531 1316.667969 " clip-rule="nonzero"/></clipPath><clipPath id="14698374d2"><path d="M 267.972656 1345.515625 C 267.402344 1334.902344 268.429688 1324.5 270.179688 1320.246094 C 271.960938 1315.914062 293.058594 1315.914062 298.152344 1320.246094 C 301.378906 1322.996094 306.273438 1328.320312 311.371094 1334.605469 C 317.734375 1340.835938 326.046875 1352.03125 330.453125 1363.398438 C 331.667969 1366.109375 332.441406 1368.5 332.628906 1370.40625 C 333.796875 1375.566406 333.890625 1380.558594 332.339844 1384.914062 C 329.199219 1393.726562 286.578125 1393.578125 276.394531 1384.914062 C 269.117188 1378.71875 267.203125 1359.476562 267.972656 1345.515625 Z M 267.972656 1345.515625 " clip-rule="evenodd"/></clipPath><clipPath id="1323150a78"><path d="M 104.574219 1323.242188 L 177.75 1323.242188 L 177.75 1398 L 104.574219 1398 Z M 104.574219 1323.242188 " clip-rule="nonzero"/></clipPath><clipPath id="99fbb536f5"><path d="M 104.9375 1355.226562 C 104.304688 1343.457031 105.445312 1331.925781 107.386719 1327.210938 C 109.363281 1322.410156 132.75 1322.410156 138.394531 1327.210938 C 141.972656 1330.261719 147.398438 1336.160156 153.046875 1343.125 C 160.105469 1350.035156 169.320312 1362.449219 174.203125 1375.050781 C 175.550781 1378.050781 176.410156 1380.703125 176.613281 1382.816406 C 177.910156 1388.535156 178.011719 1394.070312 176.296875 1398.898438 C 172.816406 1408.667969 125.5625 1408.503906 114.273438 1398.898438 C 106.207031 1392.03125 104.085938 1370.699219 104.9375 1355.226562 Z M 104.9375 1355.226562 " clip-rule="evenodd"/></clipPath><clipPath id="153f102afb"><path d="M 14.171875 699 L 374 699 L 374 1375 L 14.171875 1375 Z M 14.171875 699 " clip-rule="nonzero"/></clipPath><clipPath id="100c1c1ba3"><path d="M 42 797 L 341 797 L 341 1374.617188 L 42 1374.617188 Z M 42 797 " clip-rule="nonzero"/></clipPath><clipPath id="6ee014387e"><path d="M 325.75 762.765625 C 306.734375 689.246094 210.433594 726.957031 210.433594 726.957031 C 210.433594 726.957031 98.167969 657.308594 72.292969 740.140625 C 39.628906 844.714844 18.359375 1073.015625 14.453125 1354.375 C 14.15625 1375.617188 152.828125 1374.078125 192.707031 1374.078125 C 232.8125 1374.078125 373.917969 1375.949219 373.5625 1357.699219 C 367.429688 1039.648438 352.9375 867.890625 325.75 762.765625 Z M 325.75 762.765625 " clip-rule="evenodd"/></clipPath></defs><path fill="#ececec" d="M 890.265625 455.601562 C 900.75 459.09375 921.222656 502.878906 903.320312 556.628906 C 885.414062 610.378906 853.933594 687.542969 824.59375 669.417969 C 815.125 663.570312 819.761719 599.800781 837.664062 546.050781 C 855.566406 492.300781 879.785156 452.109375 890.265625 455.601562 Z M 890.265625 455.601562 " fill-opacity="1" fill-rule="evenodd"/><path fill="#ececec" d="M 913.464844 804.34375 C 949.667969 819.390625 1049.53125 821.304688 1083.359375 798.332031 C 1117.183594 775.363281 1118.027344 738.402344 1116.417969 666.527344 C 1114.90625 599.023438 1131.351562 482.117188 1114.125 459.207031 C 1078.441406 411.726562 908.277344 410.949219 873.0625 469.984375 C 865.871094 482.039062 878.578125 648.183594 878.816406 709.511719 C 878.960938 745.757812 876.707031 789.066406 913.464844 804.34375 Z M 913.464844 804.34375 " fill-opacity="1" fill-rule="evenodd"/><path fill="#ececec" d="M 1102.171875 449.042969 C 1082.539062 439.511719 1062.476562 512.324219 1075.519531 577.683594 C 1092.386719 662.222656 1176.976562 683.097656 1173.972656 628.117188 C 1169.765625 551.085938 1130.074219 462.589844 1102.171875 449.042969 Z M 1102.171875 449.042969 " fill-opacity="1" fill-rule="evenodd"/><path fill="#5d7497" d="M 1012.707031 517.257812 L 1024.871094 505.089844 L 1005.230469 485.445312 L 985.589844 505.089844 L 998.34375 517.847656 L 985.589844 684.027344 L 1005.230469 719.84375 L 1024.871094 684.027344 Z M 1012.707031 517.257812 " fill-opacity="1" fill-rule="evenodd"/><path fill="#ececec" d="M 947.136719 430.164062 C 947.136719 430.164062 968.90625 504.070312 980.265625 524.226562 C 982.179688 527.621094 1005.664062 482.214844 1005.664062 482.214844 C 1005.664062 482.214844 1025.652344 525.5 1028.25 523.636719 C 1041.726562 513.957031 1065.296875 435.1875 1065.296875 435.1875 " fill-opacity="1" fill-rule="evenodd"/><path fill="#202020" d="M 1028.050781 521.867188 L 1027.984375 521.785156 C 1027.519531 521.253906 1026.972656 520.480469 1026.355469 519.523438 C 1020.003906 509.707031 1007.03125 481.585938 1007.03125 481.585938 C 1006.789062 481.0625 1006.273438 480.726562 1005.703125 480.714844 C 1005.128906 480.699219 1004.597656 481.015625 1004.332031 481.527344 C 1004.332031 481.527344 989.425781 510.371094 982.449219 520.253906 C 981.859375 521.089844 981.347656 521.777344 980.910156 522.277344 C 976.90625 514.714844 971.769531 501.160156 966.769531 486.734375 C 957.417969 459.757812 948.578125 429.738281 948.578125 429.738281 C 948.339844 428.945312 947.507812 428.492188 946.710938 428.722656 C 945.917969 428.960938 945.464844 429.792969 945.695312 430.589844 C 945.695312 430.589844 954.5625 460.679688 963.929688 487.714844 C 969.289062 503.164062 974.816406 517.613281 978.957031 524.96875 C 979.210938 525.410156 979.554688 525.667969 979.941406 525.804688 C 980.273438 525.925781 980.660156 525.957031 981.101562 525.832031 C 981.449219 525.730469 981.929688 525.476562 982.449219 524.996094 C 983.085938 524.398438 983.925781 523.367188 984.898438 521.984375 C 990.632812 513.863281 1001.683594 493.046875 1005.589844 485.605469 C 1008.554688 491.917969 1016.007812 507.605469 1021.34375 517 C 1023.46875 520.75 1025.316406 523.523438 1026.425781 524.484375 C 1027.542969 525.453125 1028.535156 525.273438 1029.121094 524.855469 C 1030.9375 523.554688 1032.945312 521.105469 1035.03125 517.773438 C 1037.945312 513.113281 1041.070312 506.6875 1044.179688 499.457031 C 1055.554688 472.972656 1066.730469 435.625 1066.730469 435.625 C 1066.972656 434.828125 1066.519531 433.988281 1065.726562 433.753906 C 1064.929688 433.515625 1064.09375 433.96875 1063.855469 434.757812 C 1063.855469 434.757812 1052.738281 471.925781 1041.417969 498.269531 C 1038.382812 505.339844 1035.339844 511.625 1032.484375 516.183594 C 1030.921875 518.679688 1029.445312 520.644531 1028.050781 521.867188 Z M 1028.050781 521.867188 " fill-opacity="1" fill-rule="evenodd"/><path fill="#fcaf93" d="M 973.21875 428.777344 L 1006.8125 470.191406 L 1039.214844 428.480469 L 1029.808594 358.074219 L 984.09375 358.074219 Z M 973.21875 428.777344 " fill-opacity="1" fill-rule="evenodd"/><path fill="#ececec" d="M 942.519531 1346.929688 C 943.148438 1335.230469 942.011719 1323.769531 940.085938 1319.085938 C 938.121094 1314.3125 914.875 1314.3125 909.265625 1319.085938 C 905.707031 1322.117188 900.316406 1327.980469 894.703125 1334.902344 C 887.6875 1341.773438 878.53125 1354.105469 873.675781 1366.632812 C 872.335938 1369.617188 871.484375 1372.25 871.28125 1374.347656 C 869.992188 1380.035156 869.890625 1385.539062 871.597656 1390.335938 C 875.054688 1400.046875 922.019531 1399.882812 933.238281 1390.335938 C 941.257812 1383.511719 943.367188 1362.308594 942.519531 1346.929688 Z M 942.519531 1346.929688 " fill-opacity="1" fill-rule="evenodd"/><g clip-path="url(#5f20b59cf2)"><g clip-path="url(#14d85e4317)"><path fill="#202020" d="M 942.519531 1339.96875 C 943.148438 1328.609375 942.011719 1317.480469 940.085938 1312.929688 C 938.121094 1308.292969 914.875 1308.292969 909.265625 1312.929688 C 905.707031 1315.871094 900.316406 1321.566406 894.703125 1328.289062 C 887.6875 1334.960938 878.53125 1346.941406 873.675781 1359.101562 C 872.335938 1362 871.484375 1364.558594 871.28125 1366.597656 C 869.992188 1372.121094 869.890625 1377.464844 871.597656 1382.125 C 875.054688 1391.554688 922.019531 1391.394531 933.238281 1382.125 C 941.257812 1375.496094 943.367188 1354.902344 942.519531 1339.96875 Z M 942.519531 1339.96875 " fill-opacity="1" fill-rule="evenodd"/></g></g><path fill="#ececec" d="M 1103.238281 1357.546875 C 1103.9375 1344.582031 1102.679688 1331.875 1100.542969 1326.679688 C 1098.363281 1321.390625 1072.597656 1321.390625 1066.375 1326.679688 C 1062.433594 1330.039062 1056.457031 1336.542969 1050.230469 1344.21875 C 1042.457031 1351.832031 1032.304688 1365.503906 1026.921875 1379.390625 C 1025.4375 1382.699219 1024.492188 1385.617188 1024.265625 1387.945312 C 1022.839844 1394.25 1022.726562 1400.347656 1024.617188 1405.667969 C 1028.453125 1416.433594 1080.515625 1416.25 1092.953125 1405.667969 C 1101.84375 1398.101562 1104.179688 1374.597656 1103.238281 1357.546875 Z M 1103.238281 1357.546875 " fill-opacity="1" fill-rule="evenodd"/><g clip-path="url(#34c954113b)"><g clip-path="url(#2bffb0be56)"><path fill="#202020" d="M 1103.238281 1349.832031 C 1103.9375 1337.238281 1102.679688 1324.902344 1100.542969 1319.855469 C 1098.363281 1314.71875 1072.597656 1314.71875 1066.375 1319.855469 C 1062.433594 1323.117188 1056.457031 1329.429688 1050.230469 1336.886719 C 1042.457031 1344.28125 1032.304688 1357.558594 1026.921875 1371.042969 C 1025.4375 1374.257812 1024.492188 1377.09375 1024.265625 1379.351562 C 1022.839844 1385.476562 1022.726562 1391.398438 1024.617188 1396.566406 C 1028.453125 1407.019531 1080.515625 1406.839844 1092.953125 1396.566406 C 1101.84375 1389.21875 1104.179688 1366.390625 1103.238281 1349.832031 Z M 1103.238281 1349.832031 " fill-opacity="1" fill-rule="evenodd"/></g></g><path fill="#5d7497" d="M 884.585938 1338.988281 C 887.992188 1348.714844 961.566406 1356.238281 962.863281 1343.949219 C 970.042969 1275.84375 983.78125 889.78125 983.78125 889.78125 C 983.78125 889.78125 1027.773438 1279.46875 1034.40625 1343.734375 C 1034.941406 1348.953125 1105.203125 1354.914062 1106.207031 1344.316406 C 1115.015625 1251.253906 1128.96875 864.683594 1117.199219 769.621094 C 1114.550781 748.222656 999.847656 780.414062 999.847656 780.414062 C 999.847656 780.414062 878.261719 742.152344 877.6875 769.621094 C 874.6875 913.347656 876.671875 1316.394531 884.585938 1338.988281 Z M 884.585938 1338.988281 " fill-opacity="1" fill-rule="evenodd"/><g clip-path="url(#2218439c6d)"><g clip-path="url(#2696f59cd2)"><path fill="#4b5e7c" d="M 1051.089844 1364.910156 C 1051.089844 1364.910156 994.683594 884.496094 981.269531 885.421875 C 970.988281 886.132812 930.601562 1364.308594 930.601562 1364.308594 Z M 962.863281 778.804688 C 962.863281 776.875 963.640625 775.128906 964.910156 773.863281 C 966.175781 772.59375 967.921875 771.8125 969.851562 771.8125 L 976.785156 771.8125 C 978.714844 771.8125 980.46875 772.59375 981.730469 773.863281 C 982.996094 775.128906 983.78125 776.875 983.78125 778.804688 C 983.78125 778.804688 983.78125 850.761719 983.78125 850.761719 C 983.78125 852.691406 982.996094 854.441406 981.730469 855.707031 C 980.46875 856.972656 978.714844 857.757812 976.785156 857.757812 C 976.785156 857.757812 969.851562 857.757812 969.851562 857.757812 C 967.921875 857.757812 966.175781 856.972656 964.910156 855.707031 C 963.640625 854.441406 962.863281 852.691406 962.863281 850.761719 C 962.863281 850.761719 962.863281 778.804688 962.863281 778.804688 Z M 966.542969 778.804688 L 966.542969 850.761719 C 966.542969 851.675781 966.914062 852.503906 967.511719 853.101562 C 968.113281 853.703125 968.941406 854.074219 969.851562 854.074219 L 976.785156 854.074219 C 977.703125 854.074219 978.527344 853.703125 979.128906 853.101562 C 979.726562 852.503906 980.097656 851.675781 980.097656 850.761719 L 980.097656 778.804688 C 980.097656 777.894531 979.726562 777.066406 979.128906 776.464844 C 978.527344 775.863281 977.703125 775.496094 976.785156 775.496094 C 976.785156 775.496094 969.851562 775.496094 969.851562 775.496094 C 968.941406 775.496094 968.113281 775.863281 967.511719 776.464844 C 966.914062 777.066406 966.542969 777.894531 966.542969 778.804688 Z M 1083.324219 780.246094 C 1083.324219 774.625 1085.605469 769.53125 1089.296875 765.84375 C 1092.980469 762.152344 1098.078125 759.871094 1103.699219 759.871094 C 1103.699219 759.871094 1128.636719 759.871094 1128.636719 759.871094 C 1134.257812 759.871094 1139.351562 762.152344 1143.039062 765.84375 C 1146.730469 769.53125 1149.007812 774.625 1149.007812 780.246094 L 1149.007812 825.441406 C 1149.007812 831.066406 1146.730469 836.15625 1143.039062 839.847656 C 1139.351562 843.535156 1134.257812 845.816406 1128.636719 845.816406 C 1128.636719 845.816406 1103.699219 845.816406 1103.699219 845.816406 C 1098.078125 845.816406 1092.980469 843.535156 1089.296875 839.847656 C 1085.605469 836.15625 1083.324219 831.066406 1083.324219 825.441406 Z M 1087.011719 780.246094 L 1087.011719 825.441406 C 1087.011719 830.046875 1088.878906 834.21875 1091.902344 837.242188 C 1094.917969 840.265625 1099.09375 842.132812 1103.699219 842.132812 L 1128.636719 842.132812 C 1133.238281 842.132812 1137.414062 840.265625 1140.4375 837.242188 C 1143.457031 834.21875 1145.328125 830.046875 1145.328125 825.441406 C 1145.328125 825.441406 1145.328125 780.246094 1145.328125 780.246094 C 1145.328125 775.644531 1143.457031 771.46875 1140.4375 768.445312 C 1137.414062 765.421875 1133.238281 763.554688 1128.636719 763.554688 L 1103.699219 763.554688 C 1099.09375 763.554688 1094.917969 765.421875 1091.902344 768.445312 C 1088.878906 771.46875 1087.011719 775.644531 1087.011719 780.246094 Z M 825.023438 775.667969 C 825.023438 770.046875 827.304688 764.953125 830.992188 761.265625 C 834.679688 757.574219 839.777344 755.292969 845.398438 755.292969 C 845.398438 755.292969 870.332031 755.292969 870.332031 755.292969 C 875.953125 755.292969 881.050781 757.574219 884.734375 761.265625 C 888.425781 764.953125 890.707031 770.046875 890.707031 775.667969 L 890.707031 820.859375 C 890.707031 826.480469 888.425781 831.578125 884.734375 835.269531 C 881.050781 838.953125 875.953125 841.234375 870.332031 841.234375 C 870.332031 841.234375 845.398438 841.234375 845.398438 841.234375 C 839.777344 841.234375 834.679688 838.953125 830.992188 835.269531 C 827.304688 831.578125 825.023438 826.480469 825.023438 820.859375 C 825.023438 820.859375 825.023438 775.667969 825.023438 775.667969 Z M 828.703125 775.667969 L 828.703125 820.859375 C 828.703125 825.46875 830.578125 829.640625 833.597656 832.664062 C 836.617188 835.683594 840.792969 837.554688 845.398438 837.554688 L 870.332031 837.554688 C 874.941406 837.554688 879.113281 835.683594 882.136719 832.664062 C 885.152344 829.640625 887.027344 825.46875 887.027344 820.859375 C 887.027344 820.859375 887.027344 775.667969 887.027344 775.667969 C 887.027344 771.058594 885.152344 766.886719 882.136719 763.867188 C 879.113281 760.84375 874.941406 758.976562 870.332031 758.976562 L 845.398438 758.976562 C 840.792969 758.976562 836.617188 760.84375 833.597656 763.867188 C 830.578125 766.886719 828.703125 771.058594 828.703125 775.667969 Z M 828.703125 775.667969 " fill-opacity="1" fill-rule="evenodd"/></g></g><path fill="#202020" d="M 1014.851562 765.167969 C 1014.226562 761.1875 1011.363281 758.179688 1007.929688 758.179688 L 984.707031 758.179688 C 981.300781 758.179688 978.457031 761.140625 977.800781 765.066406 C 920.855469 762.878906 880.828125 752.164062 880.828125 752.164062 C 876.425781 750.984375 876.996094 755.308594 876.03125 760.691406 C 875.066406 766.074219 872.933594 770.492188 877.332031 771.671875 C 877.332031 771.671875 918.792969 782.824219 977.699219 785.042969 C 978.09375 789.347656 981.082031 792.695312 984.707031 792.695312 L 1007.929688 792.695312 C 1011.523438 792.695312 1014.492188 789.398438 1014.925781 785.140625 C 1046.332031 784.097656 1080.703125 780.027344 1115.316406 770.675781 C 1119.710938 769.488281 1122.496094 764.152344 1121.523438 758.773438 C 1120.554688 753.390625 1116.195312 749.988281 1111.796875 751.175781 C 1078.386719 760.203125 1045.203125 764.136719 1014.851562 765.167969 Z M 1014.851562 765.167969 " fill-opacity="1" fill-rule="evenodd"/><path fill="#fcaf93" d="M 1108.15625 672.117188 C 1108.15625 672.117188 1140.039062 719.007812 1125.941406 731.578125 C 1093.847656 760.191406 1051.457031 791.191406 1051.457031 791.191406 C 1048.921875 804.019531 1039.683594 818.519531 1027.902344 831.238281 C 1017.089844 842.910156 1006.765625 836.210938 991.308594 824.757812 C 979.308594 815.863281 1001.320312 803.628906 998.808594 801.601562 C 996.878906 800.042969 985.507812 814.265625 981.492188 807.902344 C 978.429688 803.050781 995.414062 787.109375 1001.148438 781.570312 C 1011.34375 771.722656 1022.824219 774.695312 1032.507812 765.792969 L 1032.503906 765.789062 C 1032.503906 765.789062 1074.945312 703.097656 1108.15625 672.117188 Z M 1108.15625 672.117188 " fill-opacity="1" fill-rule="evenodd"/><path fill="#ececec" d="M 1171.871094 626.476562 C 1181.855469 637.976562 1156.511719 696.894531 1115.179688 739.589844 C 1092.359375 763.160156 1057.960938 799.617188 1057.960938 799.617188 L 1022.476562 765.039062 C 1022.476562 765.039062 1046.664062 720.625 1069.613281 696.921875 C 1110.945312 654.226562 1122.019531 569.054688 1171.871094 626.476562 Z M 1171.871094 626.476562 " fill-opacity="1" fill-rule="evenodd"/><path fill="#212121" d="M 1095.117188 515.640625 L 1114.167969 628.121094 C 1114.167969 628.121094 1023.292969 760.433594 1023.292969 760.433594 C 1022.722656 761.257812 1022.9375 762.386719 1023.757812 762.957031 C 1024.585938 763.523438 1025.714844 763.316406 1026.285156 762.488281 L 1117.574219 629.570312 C 1117.84375 629.183594 1117.949219 628.703125 1117.871094 628.242188 L 1098.695312 515.035156 C 1098.527344 514.046875 1097.589844 513.382812 1096.601562 513.550781 C 1095.613281 513.714844 1094.949219 514.652344 1095.117188 515.640625 Z M 1095.117188 515.640625 " fill-opacity="1" fill-rule="evenodd"/><path fill="#202020" d="M 1011.503906 189.398438 C 1008.253906 189.566406 1004.972656 180.308594 977.179688 185.53125 C 908.3125 198.480469 914.199219 273.320312 921.511719 296.992188 C 938.675781 352.558594 950.472656 409.839844 1009.042969 409.839844 C 1067.617188 409.839844 1112.546875 364.566406 1123.542969 303.886719 C 1132.226562 255.96875 1111.917969 200.773438 1049.03125 186.785156 C 1022.164062 180.808594 1016.714844 189.132812 1011.503906 189.398438 Z M 1011.503906 189.398438 " fill-opacity="1" fill-rule="evenodd"/><path fill="#fcaf93" d="M 1044.902344 407.941406 C 1021.921875 415.421875 1011.5 420.148438 1004.066406 420.386719 C 999.648438 420.53125 982.929688 409.484375 978.980469 408.019531 C 947.328125 396.28125 928.046875 368.226562 927.675781 337.945312 C 926.953125 279.5 955.339844 244.632812 969.546875 245.152344 C 978.445312 245.476562 1059.210938 280.496094 1084.386719 299.59375 C 1096.242188 308.585938 1093.578125 320.042969 1092.78125 341.1875 C 1091.585938 372.820312 1076.878906 397.53125 1044.902344 407.941406 Z M 1044.902344 407.941406 " fill-opacity="1" fill-rule="evenodd"/><path fill="#fcaf93" d="M 1085.480469 334.59375 C 1085.195312 335.398438 1084.9375 336.214844 1084.707031 337.039062 C 1084.476562 337.863281 1084.277344 338.691406 1084.101562 339.519531 C 1083.929688 340.351562 1083.785156 341.183594 1083.667969 342.011719 C 1083.550781 342.84375 1083.464844 343.667969 1083.410156 344.492188 C 1083.351562 345.3125 1083.324219 346.128906 1083.328125 346.933594 C 1083.332031 347.738281 1083.363281 348.53125 1083.425781 349.3125 C 1083.488281 350.09375 1083.578125 350.859375 1083.699219 351.609375 C 1083.820312 352.359375 1083.972656 353.089844 1084.152344 353.800781 C 1084.332031 354.511719 1084.539062 355.203125 1084.773438 355.867188 C 1085.007812 356.53125 1085.269531 357.171875 1085.558594 357.785156 C 1085.847656 358.398438 1086.164062 358.984375 1086.503906 359.539062 C 1086.84375 360.09375 1087.207031 360.617188 1087.59375 361.109375 C 1087.980469 361.601562 1088.390625 362.058594 1088.824219 362.480469 C 1089.253906 362.90625 1089.707031 363.292969 1090.179688 363.644531 C 1090.648438 363.996094 1091.136719 364.3125 1091.644531 364.585938 C 1092.152344 364.863281 1092.675781 365.097656 1093.210938 365.296875 C 1093.75 365.496094 1094.300781 365.652344 1094.863281 365.769531 C 1095.425781 365.886719 1095.996094 365.964844 1096.578125 366 C 1097.160156 366.039062 1097.75 366.035156 1098.347656 365.988281 C 1098.945312 365.941406 1099.546875 365.855469 1100.152344 365.730469 C 1100.753906 365.605469 1101.363281 365.4375 1101.96875 365.230469 C 1102.578125 365.023438 1103.183594 364.78125 1103.789062 364.496094 C 1104.394531 364.210938 1104.992188 363.890625 1105.589844 363.53125 C 1106.183594 363.167969 1106.773438 362.773438 1107.351562 362.34375 C 1107.933594 361.910156 1108.503906 361.445312 1109.066406 360.949219 C 1109.625 360.449219 1110.171875 359.917969 1110.707031 359.355469 C 1111.242188 358.792969 1111.761719 358.203125 1112.265625 357.585938 C 1112.769531 356.964844 1113.257812 356.320312 1113.722656 355.648438 C 1114.191406 354.980469 1114.640625 354.285156 1115.066406 353.570312 C 1115.496094 352.855469 1115.902344 352.121094 1116.285156 351.367188 C 1116.667969 350.613281 1117.027344 349.84375 1117.363281 349.058594 C 1117.699219 348.273438 1118.007812 347.476562 1118.292969 346.671875 C 1118.578125 345.863281 1118.832031 345.046875 1119.0625 344.222656 C 1119.292969 343.398438 1119.496094 342.574219 1119.667969 341.742188 C 1119.84375 340.910156 1119.988281 340.082031 1120.105469 339.25 C 1120.21875 338.417969 1120.304688 337.59375 1120.363281 336.769531 C 1120.417969 335.949219 1120.445312 335.136719 1120.445312 334.328125 C 1120.441406 333.523438 1120.410156 332.730469 1120.347656 331.949219 C 1120.285156 331.167969 1120.191406 330.402344 1120.070312 329.652344 C 1119.949219 328.902344 1119.800781 328.171875 1119.621094 327.460938 C 1119.441406 326.75 1119.234375 326.0625 1119 325.394531 C 1118.765625 324.730469 1118.5 324.089844 1118.214844 323.476562 C 1117.925781 322.863281 1117.609375 322.28125 1117.269531 321.726562 C 1116.929688 321.167969 1116.566406 320.644531 1116.179688 320.152344 C 1115.789062 319.664062 1115.378906 319.203125 1114.949219 318.78125 C 1114.515625 318.355469 1114.066406 317.96875 1113.59375 317.617188 C 1113.121094 317.265625 1112.632812 316.953125 1112.125 316.675781 C 1111.621094 316.398438 1111.097656 316.164062 1110.558594 315.964844 C 1110.023438 315.769531 1109.472656 315.609375 1108.910156 315.492188 C 1108.347656 315.375 1107.773438 315.296875 1107.191406 315.261719 C 1106.609375 315.226562 1106.019531 315.230469 1105.425781 315.273438 C 1104.828125 315.320312 1104.226562 315.40625 1103.621094 315.53125 C 1103.015625 315.660156 1102.410156 315.824219 1101.800781 316.03125 C 1101.195312 316.238281 1100.585938 316.484375 1099.984375 316.765625 C 1099.378906 317.050781 1098.777344 317.375 1098.183594 317.734375 C 1097.585938 318.09375 1097 318.488281 1096.417969 318.917969 C 1095.835938 319.351562 1095.265625 319.816406 1094.707031 320.316406 C 1094.144531 320.8125 1093.597656 321.34375 1093.0625 321.90625 C 1092.527344 322.46875 1092.007812 323.058594 1091.503906 323.679688 C 1091.003906 324.296875 1090.515625 324.941406 1090.046875 325.613281 C 1089.578125 326.285156 1089.132812 326.976562 1088.703125 327.691406 C 1088.277344 328.40625 1087.871094 329.144531 1087.488281 329.894531 C 1087.105469 330.648438 1086.746094 331.417969 1086.410156 332.203125 C 1086.074219 332.988281 1085.761719 333.785156 1085.480469 334.59375 Z M 1085.480469 334.59375 " fill-opacity="1" fill-rule="nonzero"/><path fill="#ececec" d="M 827.527344 672.0625 C 845.027344 673.199219 862.546875 654.589844 853.390625 570.457031 C 850.023438 539.511719 841.652344 454.007812 840.414062 441.863281 C 840.242188 440.210938 787.007812 434.972656 786.230469 441.261719 C 783.8125 460.847656 782.046875 537.003906 785.21875 569.460938 C 790.53125 623.800781 804.191406 670.546875 827.527344 672.0625 Z M 827.527344 672.0625 " fill-opacity="1" fill-rule="evenodd"/><path fill="#ececec" d="M 267.972656 1345.515625 C 267.402344 1334.902344 268.429688 1324.5 270.179688 1320.246094 C 271.960938 1315.914062 293.058594 1315.914062 298.152344 1320.246094 C 301.378906 1322.996094 306.273438 1328.320312 311.371094 1334.605469 C 317.734375 1340.835938 326.046875 1352.03125 330.453125 1363.398438 C 331.667969 1366.109375 332.441406 1368.5 332.628906 1370.40625 C 333.796875 1375.566406 333.890625 1380.558594 332.339844 1384.914062 C 329.199219 1393.726562 286.578125 1393.578125 276.394531 1384.914062 C 269.117188 1378.71875 267.203125 1359.476562 267.972656 1345.515625 Z M 267.972656 1345.515625 " fill-opacity="1" fill-rule="evenodd"/><g clip-path="url(#a85b0ecd16)"><g clip-path="url(#14698374d2)"><path fill="#202020" d="M 267.972656 1339.199219 C 267.402344 1328.890625 268.429688 1318.789062 270.179688 1314.660156 C 271.960938 1310.453125 293.058594 1310.453125 298.152344 1314.660156 C 301.378906 1317.332031 306.273438 1322.5 311.371094 1328.601562 C 317.734375 1334.65625 326.046875 1345.527344 330.453125 1356.566406 C 331.667969 1359.195312 332.441406 1361.519531 332.628906 1363.371094 C 333.796875 1368.382812 333.890625 1373.230469 332.339844 1377.460938 C 329.199219 1386.019531 286.578125 1385.875 276.394531 1377.460938 C 269.117188 1371.445312 267.203125 1352.753906 267.972656 1339.199219 Z M 267.972656 1339.199219 " fill-opacity="1" fill-rule="evenodd"/></g></g><path fill="#ececec" d="M 104.9375 1355.226562 C 104.304688 1343.457031 105.445312 1331.925781 107.386719 1327.210938 C 109.363281 1322.410156 132.75 1322.410156 138.394531 1327.210938 C 141.972656 1330.261719 147.398438 1336.160156 153.046875 1343.125 C 160.105469 1350.035156 169.320312 1362.449219 174.203125 1375.050781 C 175.550781 1378.050781 176.410156 1380.703125 176.613281 1382.816406 C 177.910156 1388.535156 178.011719 1394.070312 176.296875 1398.898438 C 172.816406 1408.667969 125.5625 1408.503906 114.273438 1398.898438 C 106.207031 1392.03125 104.085938 1370.699219 104.9375 1355.226562 Z M 104.9375 1355.226562 " fill-opacity="1" fill-rule="evenodd"/><g clip-path="url(#1323150a78)"><g clip-path="url(#99fbb536f5)"><path fill="#202020" d="M 104.9375 1348.222656 C 104.304688 1336.792969 105.445312 1325.59375 107.386719 1321.015625 C 109.363281 1316.351562 132.75 1316.351562 138.394531 1321.015625 C 141.972656 1323.976562 147.398438 1329.707031 153.046875 1336.472656 C 160.105469 1343.183594 169.320312 1355.238281 174.203125 1367.476562 C 175.550781 1370.390625 176.410156 1372.964844 176.613281 1375.015625 C 177.910156 1380.574219 178.011719 1385.949219 176.296875 1390.636719 C 172.816406 1400.125 125.5625 1399.964844 114.273438 1390.636719 C 106.207031 1383.96875 104.085938 1363.25 104.9375 1348.222656 Z M 104.9375 1348.222656 " fill-opacity="1" fill-rule="evenodd"/></g></g><g clip-path="url(#153f102afb)"><path fill="#5d7497" d="M 325.75 762.765625 C 306.734375 689.246094 210.433594 726.957031 210.433594 726.957031 C 210.433594 726.957031 98.167969 657.308594 72.292969 740.140625 C 39.628906 844.714844 18.359375 1073.015625 14.453125 1354.375 C 14.15625 1375.617188 152.828125 1374.078125 192.707031 1374.078125 C 232.8125 1374.078125 373.917969 1375.949219 373.5625 1357.699219 C 367.429688 1039.648438 352.9375 867.890625 325.75 762.765625 Z M 325.75 762.765625 " fill-opacity="1" fill-rule="evenodd"/></g><g clip-path="url(#100c1c1ba3)"><g clip-path="url(#6ee014387e)"><path fill="#4b5e7c" d="M 179.261719 799.984375 C 179.261719 799.984375 177.207031 891.238281 174.371094 1001.003906 C 173.648438 1028.921875 172.878906 1058.03125 172.015625 1087.144531 C 167.746094 1230.703125 162.804688 1374.234375 162.804688 1374.234375 C 162.71875 1376.636719 160.703125 1378.519531 158.300781 1378.433594 C 155.902344 1378.347656 154.019531 1376.332031 154.105469 1373.929688 C 154.105469 1373.929688 159.230469 1230.402344 165.03125 1086.902344 C 166.207031 1057.796875 167.476562 1028.703125 168.710938 1000.800781 C 173.570312 891.113281 177.917969 799.941406 177.917969 799.941406 C 177.929688 799.566406 178.242188 799.277344 178.613281 799.289062 C 178.984375 799.300781 179.273438 799.613281 179.261719 799.984375 Z M 254.414062 800.085938 C 254.414062 800.085938 259.960938 891.195312 266.265625 1000.816406 C 267.871094 1028.695312 269.523438 1057.769531 271.085938 1086.851562 C 278.777344 1230.269531 285.792969 1373.71875 285.792969 1373.71875 C 285.910156 1376.113281 284.054688 1378.15625 281.65625 1378.273438 C 279.257812 1378.390625 277.214844 1376.535156 277.097656 1374.136719 C 277.097656 1374.136719 270.265625 1230.675781 264.101562 1087.191406 C 262.855469 1058.09375 261.699219 1028.996094 260.609375 1001.089844 C 256.324219 891.371094 253.070312 800.152344 253.070312 800.152344 C 253.050781 799.777344 253.335938 799.464844 253.707031 799.449219 C 254.078125 799.429688 254.394531 799.71875 254.414062 800.085938 Z M 210.648438 798.867188 C 210.648438 798.867188 212.808594 890.121094 215.035156 999.898438 C 215.601562 1027.820312 216.175781 1056.933594 216.652344 1086.054688 C 219.011719 1229.65625 220.691406 1373.265625 220.691406 1373.265625 C 220.71875 1375.667969 218.789062 1377.636719 216.386719 1377.667969 C 213.984375 1377.695312 212.015625 1375.765625 211.988281 1373.359375 C 211.988281 1373.359375 210.488281 1229.75 209.664062 1086.132812 C 209.496094 1057.007812 209.425781 1027.882812 209.371094 999.957031 C 209.167969 890.160156 209.304688 798.882812 209.304688 798.882812 C 209.300781 798.511719 209.597656 798.207031 209.96875 798.203125 C 210.339844 798.199219 210.644531 798.492188 210.648438 798.867188 Z M 137.691406 799.6875 C 137.691406 799.6875 132.246094 890.804688 125.332031 1000.382812 C 123.570312 1028.257812 121.71875 1057.316406 119.769531 1086.378906 C 110.167969 1229.679688 99.890625 1372.929688 99.890625 1372.929688 C 99.71875 1375.324219 97.632812 1377.132812 95.234375 1376.957031 C 92.839844 1376.785156 91.035156 1374.699219 91.207031 1372.300781 C 91.207031 1372.300781 101.667969 1229.0625 112.800781 1085.871094 C 115.058594 1056.839844 117.410156 1027.808594 119.683594 999.976562 C 128.617188 890.542969 136.347656 799.589844 136.347656 799.589844 C 136.375 799.222656 136.699219 798.941406 137.070312 798.96875 C 137.441406 798.996094 137.71875 799.316406 137.691406 799.6875 Z M 290.421875 799.78125 C 290.421875 799.78125 298.96875 890.660156 308.878906 1000.011719 C 311.402344 1027.824219 314.011719 1056.832031 316.53125 1085.84375 C 328.941406 1228.925781 340.679688 1372.066406 340.679688 1372.066406 C 340.875 1374.457031 339.089844 1376.5625 336.695312 1376.757812 C 334.300781 1376.953125 332.199219 1375.167969 332.003906 1372.773438 C 332.003906 1372.773438 320.449219 1229.617188 309.5625 1086.410156 C 307.355469 1057.371094 305.246094 1028.324219 303.238281 1000.472656 C 295.339844 890.957031 289.082031 799.890625 289.082031 799.890625 C 289.050781 799.523438 289.328125 799.195312 289.695312 799.164062 C 290.066406 799.132812 290.390625 799.414062 290.421875 799.78125 Z M 93.660156 798.171875 C 93.660156 798.171875 87.402344 889.230469 79.503906 998.746094 C 77.496094 1026.605469 75.382812 1055.648438 73.175781 1084.6875 C 62.292969 1227.898438 50.738281 1371.050781 50.738281 1371.050781 C 50.542969 1373.441406 48.441406 1375.230469 46.046875 1375.039062 C 43.652344 1374.839844 41.867188 1372.738281 42.058594 1370.347656 C 42.058594 1370.347656 53.800781 1227.207031 66.210938 1084.121094 C 68.726562 1055.105469 71.339844 1026.101562 73.859375 998.289062 C 83.773438 888.9375 92.320312 798.0625 92.320312 798.0625 C 92.347656 797.6875 92.675781 797.414062 93.042969 797.445312 C 93.414062 797.472656 93.691406 797.800781 93.660156 798.171875 Z M 93.660156 798.171875 " fill-opacity="1" fill-rule="evenodd"/></g></g><path fill="#ececec" d="M 378.351562 585.199219 C 353.886719 615.234375 322.390625 590.105469 280.773438 559.28125 C 257.792969 542.257812 229.402344 509.144531 229.402344 509.144531 C 229.402344 509.144531 258.839844 469.445312 271.703125 468.136719 C 287.652344 466.519531 303.515625 479.65625 325.105469 499.414062 C 364.566406 535.519531 397.082031 562.199219 378.351562 585.199219 Z M 378.351562 585.199219 " fill-opacity="1" fill-rule="evenodd"/><path fill="#ececec" d="M 317.402344 760.621094 C 319.613281 759.207031 321.480469 757.355469 323.117188 755.160156 C 330.101562 745.796875 320.390625 644.527344 319.046875 614.347656 C 316.007812 545.933594 321.652344 500.933594 305.335938 477.691406 C 271.519531 429.53125 105.949219 437.605469 69.851562 484.039062 C 61.34375 494.980469 68.9375 608.1875 69.691406 655.074219 C 69.984375 673.269531 47.765625 750.726562 66.875 765.363281 C 110.617188 798.859375 261.441406 796.394531 317.402344 760.621094 Z M 317.402344 760.621094 " fill-opacity="1" fill-rule="evenodd"/><path fill="#fcaf93" d="M 124.472656 689.050781 C 124.472656 689.050781 74.921875 706.054688 78.378906 723.160156 C 86.257812 762.101562 100.425781 808.519531 100.425781 808.519531 C 95.195312 819.410156 93.992188 835.253906 95.65625 851.1875 C 97.183594 865.808594 108.53125 866.578125 126.308594 866.671875 C 140.109375 866.746094 130.613281 845.503906 133.589844 845.394531 C 135.882812 845.3125 136.40625 862.128906 142.90625 859.652344 C 147.855469 857.761719 144.128906 836.558594 142.960938 829.289062 C 140.875 816.355469 130.742188 812.1875 128.515625 800.242188 C 128.515625 800.242188 131.867188 730.363281 124.472656 689.050781 Z M 124.472656 689.050781 " fill-opacity="1" fill-rule="evenodd"/><path fill="#ececec" d="M 95.738281 585.21875 C 80.183594 586.351562 71.609375 642.878906 76.597656 711.371094 C 79.355469 749.191406 82.90625 807.003906 82.90625 807.003906 L 133.488281 803.140625 C 133.488281 803.140625 135.726562 745.296875 132.953125 707.265625 C 127.964844 638.773438 111.285156 584.085938 95.738281 585.21875 Z M 95.738281 585.21875 " fill-opacity="1" fill-rule="evenodd"/><path fill="#ececec" d="M 111.808594 791.582031 C 130.355469 789.652344 137.636719 713.3125 128.0625 621.210938 C 122.777344 570.355469 106.15625 495.648438 106.15625 495.648438 C 106.15625 495.648438 61.394531 503.242188 55.105469 521.628906 C 47.5625 543.722656 50.746094 577.257812 60.863281 628.195312 C 78.878906 718.921875 93.269531 793.507812 111.808594 791.582031 Z M 111.808594 791.582031 " fill-opacity="1" fill-rule="evenodd"/><path fill="#ececec" d="M 194.535156 201.917969 C 256.28125 201.917969 302.28125 253.054688 306.414062 315.761719 C 309.863281 368.105469 328.667969 469.09375 194.453125 467.839844 C 55.453125 466.542969 78.480469 362.808594 82.65625 315.761719 C 88.214844 253.160156 132.789062 201.917969 194.535156 201.917969 Z M 194.535156 201.917969 " fill-opacity="1" fill-rule="evenodd"/><path fill="#ececec" d="M 194.535156 368.804688 C 237.742188 368.804688 344.871094 490.519531 334.914062 512.679688 C 321.070312 543.484375 321.03125 546.957031 309.257812 563.21875 C 298.675781 577.8125 294.0625 832.441406 285.359375 831.3125 C 271.339844 829.515625 263.191406 720.632812 235.882812 650.914062 C 221.359375 613.847656 208.179688 585.453125 199.757812 585.210938 C 154.328125 583.851562 64.890625 540.3125 50.75 515.621094 C 48.082031 510.960938 51.46875 501.238281 58.832031 488.902344 C 84.902344 445.21875 160.839844 368.804688 194.535156 368.804688 Z M 194.535156 368.804688 " fill-opacity="1" fill-rule="evenodd"/><path fill="#202020" d="M 119.265625 562.980469 C 119.265625 562.980469 120.242188 577.054688 121.660156 595.980469 C 122 600.460938 122.359375 605.210938 122.753906 610.113281 C 123.246094 616.242188 123.757812 622.601562 124.328125 628.953125 C 124.707031 633.160156 125.097656 637.363281 125.527344 641.496094 C 126.296875 648.816406 127.136719 655.898438 127.90625 662.363281 C 128.445312 666.882812 128.976562 671.089844 129.453125 674.875 C 130.890625 686.199219 131.886719 693.628906 131.886719 693.628906 C 131.90625 693.84375 132.101562 694 132.316406 693.980469 C 132.535156 693.960938 132.691406 693.769531 132.667969 693.550781 C 132.667969 693.550781 132.226562 686.074219 131.46875 674.679688 C 131.214844 670.875 130.925781 666.640625 130.589844 662.105469 C 130.105469 655.613281 129.578125 648.503906 128.925781 641.167969 C 128.5625 637.03125 128.140625 632.828125 127.707031 628.625 C 127.050781 622.285156 126.332031 615.941406 125.644531 609.835938 C 125.089844 604.945312 124.539062 600.214844 124.007812 595.75 C 121.78125 576.90625 120.042969 562.902344 120.042969 562.902344 C 120.023438 562.6875 119.832031 562.53125 119.617188 562.550781 C 119.402344 562.570312 119.242188 562.765625 119.265625 562.980469 Z M 119.265625 562.980469 " fill-opacity="1" fill-rule="evenodd"/><path fill="#202020" d="M 68.582031 666.773438 C 68.582031 666.773438 69.058594 670.820312 69.84375 675.976562 C 70.132812 677.910156 70.476562 680 70.855469 682.078125 C 71.007812 682.886719 71.175781 683.703125 71.351562 684.5 C 71.625 685.742188 71.914062 686.957031 72.203125 688.109375 C 73.460938 693.164062 74.554688 697.089844 74.554688 697.089844 C 74.574219 697.191406 74.671875 697.257812 74.773438 697.238281 C 74.875 697.21875 74.941406 697.117188 74.921875 697.015625 C 74.921875 697.015625 74.394531 692.976562 73.574219 687.828125 C 73.390625 686.652344 73.183594 685.425781 72.953125 684.175781 C 72.800781 683.371094 72.636719 682.5625 72.460938 681.75 C 72.003906 679.6875 71.496094 677.636719 71.011719 675.742188 C 69.71875 670.6875 68.582031 666.773438 68.582031 666.773438 Z M 68.582031 666.773438 " fill-opacity="1" fill-rule="evenodd"/><path fill="#202020" d="M 334.558594 512.519531 C 327.292969 528.167969 323.714844 536.71875 320.363281 543.496094 C 317.179688 549.933594 314.195312 554.757812 308.394531 562.582031 C 307.210938 564.183594 306 568.542969 304.898438 575.105469 C 303.023438 586.300781 301.246094 604.078125 299.628906 625.175781 C 298.925781 634.382812 298.238281 644.226562 297.628906 654.441406 C 297.0625 663.953125 296.558594 673.785156 296.085938 683.703125 C 295.386719 698.375 294.769531 713.25 294.171875 727.636719 C 293.527344 743.152344 292.949219 758.078125 292.300781 771.558594 C 292.285156 771.769531 292.449219 771.964844 292.667969 771.976562 C 292.882812 771.988281 293.070312 771.816406 293.082031 771.609375 C 294.523438 753.488281 296.042969 732.730469 297.460938 711.464844 C 298.355469 698.105469 299.230469 684.5625 300.054688 671.351562 C 300.621094 662.214844 301.15625 653.253906 301.679688 644.621094 C 302.566406 629.988281 303.410156 616.347656 304.328125 604.542969 C 305.441406 590.265625 306.609375 578.707031 307.945312 571.398438 C 308.644531 567.578125 309.328125 564.957031 310.121094 563.84375 C 315.828125 555.773438 318.75 550.8125 321.828125 544.199219 C 325.023438 537.335938 328.386719 528.683594 335.273438 512.839844 C 335.359375 512.644531 335.273438 512.410156 335.078125 512.320312 C 334.878906 512.234375 334.644531 512.320312 334.558594 512.519531 Z M 334.558594 512.519531 " fill-opacity="1" fill-rule="evenodd"/><path fill="#202020" d="M 267.648438 777.203125 C 263.871094 754.355469 258.996094 727 252.449219 700.417969 C 248.140625 682.910156 243.097656 665.742188 237.214844 650.398438 C 229.546875 630.550781 222.261719 613.175781 215.824219 601.226562 C 212.5625 595.175781 209.496094 590.5 206.734375 587.535156 C 204.246094 584.867188 201.863281 583.542969 199.808594 583.484375 C 190.476562 583.226562 179.269531 581.144531 167.222656 577.851562 C 152.144531 573.75 135.777344 567.722656 120.15625 560.804688 C 87.863281 546.527344 58.746094 528.464844 51.089844 515.421875 C 50.980469 515.234375 50.742188 515.171875 50.554688 515.277344 C 50.367188 515.386719 50.300781 515.625 50.40625 515.8125 C 57.851562 529.140625 86.746094 548.179688 119.085938 563.179688 C 134.722656 570.429688 151.167969 576.734375 166.339844 581.023438 C 178.652344 584.511719 190.144531 586.628906 199.707031 586.9375 C 201.089844 586.972656 202.542969 588.097656 204.222656 589.886719 C 206.847656 592.691406 209.738281 597.125 212.867188 602.828125 C 219.339844 614.644531 226.757812 631.8125 234.554688 651.441406 C 240.621094 666.613281 245.855469 683.605469 250.410156 700.933594 C 257.363281 727.382812 262.722656 754.601562 266.875 777.339844 C 266.910156 777.558594 267.113281 777.695312 267.328125 777.65625 C 267.539062 777.621094 267.683594 777.425781 267.648438 777.203125 Z M 267.648438 777.203125 " fill-opacity="1" fill-rule="evenodd"/><path fill="#202020" d="M 200.027344 586.917969 C 200.027344 586.917969 211.222656 589.667969 230.679688 587.359375 C 234.644531 586.886719 238.953125 586.195312 243.5625 585.175781 C 249.9375 583.765625 256.886719 581.742188 264.371094 579.042969 C 270.660156 576.773438 277.285156 573.984375 284.265625 570.621094 C 277.058594 573.378906 270.238281 575.554688 263.828125 577.328125 C 256.265625 579.421875 249.285156 580.855469 242.929688 581.933594 C 238.375 582.703125 234.152344 583.285156 230.269531 583.699219 C 211.539062 585.703125 200.800781 583.503906 200.800781 583.503906 C 199.859375 583.289062 198.921875 583.882812 198.707031 584.824219 C 198.492188 585.769531 199.085938 586.707031 200.027344 586.917969 Z M 200.027344 586.917969 " fill-opacity="1" fill-rule="evenodd"/><path fill="#4b5e7c" d="M 199.738281 251.761719 C 224.042969 251.761719 274.9375 298.363281 274.9375 344.703125 C 274.9375 391.042969 242.265625 428.664062 202.023438 428.664062 C 161.78125 428.664062 129.109375 391.042969 129.109375 344.703125 C 129.109375 298.363281 175.433594 251.761719 199.738281 251.761719 Z M 199.738281 251.761719 " fill-opacity="1" fill-rule="evenodd"/><path fill="#fcaf93" d="M 202.023438 270.410156 C 210.554688 270.644531 274.9375 306.648438 274.9375 350.042969 C 274.9375 393.4375 242.265625 428.664062 202.023438 428.664062 C 161.78125 428.664062 129.109375 393.4375 129.109375 350.042969 C 129.109375 306.648438 191.109375 270.105469 202.023438 270.410156 Z M 202.023438 270.410156 " fill-opacity="1" fill-rule="evenodd"/><path fill="#5d7497" d="M 881.160156 451.078125 C 881.160156 438.714844 871.125 428.667969 858.753906 428.667969 L 340.046875 428.667969 C 327.683594 428.667969 317.640625 438.714844 317.640625 451.078125 L 317.640625 776.394531 C 317.640625 788.765625 327.683594 798.804688 340.046875 798.804688 L 858.753906 798.804688 C 871.125 798.804688 881.160156 788.765625 881.160156 776.394531 Z M 881.160156 451.078125 " fill-opacity="1" fill-rule="evenodd"/><path fill="#fcaf93" d="M 410.863281 414.9375 C 430.40625 414.9375 446.273438 426.789062 446.273438 441.390625 C 446.273438 455.992188 430.40625 467.847656 410.863281 467.847656 C 394.296875 467.847656 393.003906 442.496094 389.148438 431.007812 C 388.457031 428.941406 373.296875 430.886719 373.296875 428.664062 C 373.296875 414.0625 391.324219 414.9375 410.863281 414.9375 Z M 410.863281 414.9375 " fill-opacity="1" fill-rule="evenodd"/><path fill="#fcaf93" d="M 782.421875 414.9375 C 762.882812 414.9375 747.015625 426.789062 747.015625 441.390625 C 747.015625 455.992188 762.882812 467.847656 782.421875 467.847656 C 798.988281 467.847656 800.28125 442.496094 804.140625 431.007812 C 804.832031 428.941406 819.988281 430.886719 819.988281 428.664062 C 819.988281 414.0625 801.964844 414.9375 782.421875 414.9375 Z M 782.421875 414.9375 " fill-opacity="1" fill-rule="evenodd"/><g fill="#000000" fill-opacity="1"><g transform="translate(595.150125, 642.566375)"><g/></g></g><g fill="#f1f3f6" fill-opacity="1"><g transform="translate(343.495887, 644.931366)"><g><path d="M 48.203125 -33.71875 C 51.578125 -29.707031 53.265625 -25.21875 53.265625 -20.25 C 53.148438 -14.53125 51.191406 -9.738281 47.390625 -5.875 C 43.585938 -2.007812 38.972656 -0.078125 33.546875 -0.078125 L 10.984375 -0.078125 C 6.972656 -0.078125 4.628906 -1.164062 3.953125 -3.34375 C 3.609375 -4.3125 3.4375 -5.800781 3.4375 -7.8125 L 3.4375 -55.421875 C 3.4375 -56.785156 3.476562 -57.78125 3.5625 -58.40625 C 3.644531 -59.039062 3.914062 -59.785156 4.375 -60.640625 C 5.175781 -62.191406 7.40625 -62.96875 11.0625 -62.96875 L 32.6875 -62.96875 C 37.945312 -62.96875 42.347656 -61.132812 45.890625 -57.46875 C 49.609375 -53.75 51.46875 -49.289062 51.46875 -44.09375 C 51.46875 -40.320312 50.378906 -36.863281 48.203125 -33.71875 Z M 38.09375 -21.109375 C 38.09375 -22.472656 37.929688 -23.554688 37.609375 -24.359375 C 37.296875 -25.160156 36.769531 -25.734375 36.03125 -26.078125 C 34.882812 -26.535156 33.28125 -26.765625 31.21875 -26.765625 C 29.164062 -26.765625 27.625 -27.164062 26.59375 -27.96875 C 25.5625 -28.769531 25.046875 -30.410156 25.046875 -32.890625 C 25.046875 -35.378906 25.570312 -37.023438 26.625 -37.828125 C 27.6875 -38.628906 29.445312 -39.03125 31.90625 -39.03125 C 34.195312 -39.03125 35.570312 -39.628906 36.03125 -40.828125 C 36.195312 -41.460938 36.28125 -42.492188 36.28125 -43.921875 C 36.28125 -45.347656 35.804688 -46.347656 34.859375 -46.921875 C 33.921875 -47.492188 32.507812 -47.78125 30.625 -47.78125 L 18.609375 -47.78125 L 18.609375 -15.265625 L 32.6875 -15.265625 C 36.289062 -15.265625 38.09375 -17.210938 38.09375 -21.109375 Z M 38.09375 -21.109375 "/></g></g></g><g fill="#f1f3f6" fill-opacity="1"><g transform="translate(398.911709, 644.931366)"><g><path d="M 47.015625 -28 C 47.015625 -24.488281 46.140625 -21.890625 44.390625 -20.203125 C 42.648438 -18.515625 40.722656 -17.671875 38.609375 -17.671875 L 18.265625 -17.671875 C 18.265625 -16.066406 19.207031 -14.722656 21.09375 -13.640625 C 22.988281 -12.554688 24.878906 -12.015625 26.765625 -12.015625 C 30.078125 -12.015625 32.675781 -12.351562 34.5625 -13.03125 L 35.515625 -13.375 C 36.890625 -14.007812 38.03125 -14.328125 38.9375 -14.328125 C 40.769531 -14.328125 42.34375 -13.039062 43.65625 -10.46875 C 44.40625 -8.925781 44.78125 -7.609375 44.78125 -6.515625 C 44.78125 -1.429688 38.6875 1.109375 26.5 1.109375 C 22.269531 1.109375 18.507812 0.378906 15.21875 -1.078125 C 11.9375 -2.535156 9.378906 -4.460938 7.546875 -6.859375 C 3.941406 -11.492188 2.140625 -16.671875 2.140625 -22.390625 C 2.140625 -29.597656 4.46875 -35.359375 9.125 -39.671875 C 13.789062 -43.992188 19.613281 -46.15625 26.59375 -46.15625 C 34.539062 -46.15625 40.375 -43.351562 44.09375 -37.75 C 46.039062 -34.769531 47.015625 -31.519531 47.015625 -28 Z M 28.90625 -25.484375 C 31.082031 -25.484375 32.171875 -26.394531 32.171875 -28.21875 C 32.171875 -29.53125 31.671875 -30.585938 30.671875 -31.390625 C 29.671875 -32.191406 28.238281 -32.59375 26.375 -32.59375 C 24.519531 -32.59375 22.675781 -31.832031 20.84375 -30.3125 C 19.007812 -28.800781 18.09375 -27.191406 18.09375 -25.484375 Z M 28.90625 -25.484375 "/></g></g></g><g fill="#f1f3f6" fill-opacity="1"><g transform="translate(448.065366, 644.931366)"><g><path d="M 34.140625 -44.6875 C 35.222656 -44.34375 36.125 -43.753906 36.84375 -42.921875 C 37.5625 -42.097656 37.921875 -40.769531 37.921875 -38.9375 C 37.921875 -37.113281 37.375 -35.113281 36.28125 -32.9375 C 35.195312 -30.769531 33.625 -29.6875 31.5625 -29.6875 C 30.539062 -29.6875 29.554688 -29.910156 28.609375 -30.359375 C 27.660156 -30.816406 26.414062 -31.046875 24.875 -31.046875 C 23.332031 -31.046875 21.890625 -30.503906 20.546875 -29.421875 C 19.203125 -28.335938 18.53125 -27.023438 18.53125 -25.484375 L 18.53125 -7.46875 C 18.53125 -6.144531 18.484375 -5.15625 18.390625 -4.5 C 18.304688 -3.84375 18.035156 -3.085938 17.578125 -2.234375 C 16.722656 -0.742188 14.492188 0 10.890625 0 C 8.148438 0 6.175781 -0.484375 4.96875 -1.453125 C 4.0625 -2.253906 3.550781 -3.484375 3.4375 -5.140625 C 3.4375 -5.710938 3.4375 -6.546875 3.4375 -7.640625 L 3.4375 -37.75 C 3.4375 -39.0625 3.476562 -40.046875 3.5625 -40.703125 C 3.644531 -41.359375 3.890625 -42.085938 4.296875 -42.890625 C 5.085938 -44.429688 7.316406 -45.203125 10.984375 -45.203125 C 14.410156 -45.203125 16.550781 -44.546875 17.40625 -43.234375 C 18.039062 -42.316406 18.359375 -41.375 18.359375 -40.40625 C 18.640625 -40.800781 19.050781 -41.285156 19.59375 -41.859375 C 20.144531 -42.429688 21.304688 -43.203125 23.078125 -44.171875 C 24.847656 -45.148438 26.40625 -45.640625 27.75 -45.640625 C 29.09375 -45.640625 30.222656 -45.566406 31.140625 -45.421875 C 32.054688 -45.273438 33.054688 -45.03125 34.140625 -44.6875 Z M 34.140625 -44.6875 "/></g></g></g><g fill="#f1f3f6" fill-opacity="1"><g transform="translate(487.268207, 644.931366)"><g><path d="M 30.03125 -22.640625 L 41.4375 -13.203125 C 42.863281 -12.003906 43.757812 -11.085938 44.125 -10.453125 C 44.5 -9.828125 44.6875 -9.226562 44.6875 -8.65625 C 44.6875 -7.289062 43.800781 -5.4375 42.03125 -3.09375 C 40.082031 -0.6875 38.367188 0.515625 36.890625 0.515625 C 35.628906 0.515625 33.882812 -0.3125 31.65625 -1.96875 L 30.796875 -2.578125 C 29.484375 -3.660156 27.453125 -5.5625 24.703125 -8.28125 C 21.960938 -11 19.875 -12.925781 18.4375 -14.0625 L 18.4375 -7.46875 C 18.4375 -6.144531 18.394531 -5.15625 18.3125 -4.5 C 18.226562 -3.84375 17.957031 -3.085938 17.5 -2.234375 C 16.757812 -0.742188 14.554688 0 10.890625 0 C 7.285156 0 5.085938 -0.769531 4.296875 -2.3125 C 3.890625 -3.175781 3.644531 -3.9375 3.5625 -4.59375 C 3.476562 -5.25 3.4375 -6.234375 3.4375 -7.546875 L 3.4375 -58.9375 C 3.4375 -60.25 3.476562 -61.234375 3.5625 -61.890625 C 3.644531 -62.546875 3.890625 -63.304688 4.296875 -64.171875 C 5.085938 -65.710938 7.316406 -66.484375 10.984375 -66.484375 C 13.722656 -66.484375 15.664062 -65.992188 16.8125 -65.015625 C 17.78125 -64.222656 18.296875 -62.96875 18.359375 -61.25 C 18.410156 -60.726562 18.4375 -59.925781 18.4375 -58.84375 L 18.4375 -31.65625 C 19.46875 -32.507812 21.023438 -33.960938 23.109375 -36.015625 C 25.203125 -38.078125 26.765625 -39.539062 27.796875 -40.40625 L 28.828125 -41.09375 C 30.828125 -42.632812 32.539062 -43.40625 33.96875 -43.40625 C 35.394531 -43.40625 37.035156 -42.242188 38.890625 -39.921875 C 40.753906 -37.609375 41.6875 -35.796875 41.6875 -34.484375 C 41.6875 -33.171875 40.628906 -31.628906 38.515625 -29.859375 Z M 30.03125 -22.640625 "/></g></g></g><g fill="#f1f3f6" fill-opacity="1"><g transform="translate(533.247894, 644.931366)"><g><path d="M 32.765625 -40.40625 C 33.109375 -43.601562 35.367188 -45.203125 39.546875 -45.203125 C 41.773438 -45.203125 43.429688 -45.03125 44.515625 -44.6875 C 45.609375 -44.34375 46.367188 -43.742188 46.796875 -42.890625 C 47.222656 -42.035156 47.476562 -41.273438 47.5625 -40.609375 C 47.644531 -39.953125 47.6875 -38.96875 47.6875 -37.65625 L 47.6875 -7.640625 C 47.6875 -6.316406 47.644531 -5.328125 47.5625 -4.671875 C 47.476562 -4.015625 47.238281 -3.257812 46.84375 -2.40625 C 46.039062 -0.914062 44.078125 -0.171875 40.953125 -0.171875 C 37.835938 -0.171875 35.75 -0.554688 34.6875 -1.328125 C 33.632812 -2.097656 33.023438 -3.226562 32.859375 -4.71875 C 30.742188 -1.6875 27.210938 -0.171875 22.265625 -0.171875 C 17.316406 -0.171875 12.722656 -2.425781 8.484375 -6.9375 C 4.253906 -11.457031 2.140625 -16.707031 2.140625 -22.6875 C 2.140625 -28.664062 4.269531 -33.898438 8.53125 -38.390625 C 12.789062 -42.878906 17.46875 -45.125 22.5625 -45.125 C 24.507812 -45.125 26.28125 -44.78125 27.875 -44.09375 C 29.476562 -43.40625 30.59375 -42.757812 31.21875 -42.15625 C 31.851562 -41.5625 32.367188 -40.976562 32.765625 -40.40625 Z M 17.15625 -22.5625 C 17.15625 -20.675781 17.894531 -18.972656 19.375 -17.453125 C 20.863281 -15.941406 22.664062 -15.1875 24.78125 -15.1875 C 26.90625 -15.1875 28.664062 -15.957031 30.0625 -17.5 C 31.46875 -19.039062 32.171875 -20.738281 32.171875 -22.59375 C 32.171875 -24.457031 31.5 -26.1875 30.15625 -27.78125 C 28.8125 -29.382812 27.007812 -30.1875 24.75 -30.1875 C 22.488281 -30.1875 20.65625 -29.382812 19.25 -27.78125 C 17.851562 -26.1875 17.15625 -24.445312 17.15625 -22.5625 Z M 17.15625 -22.5625 "/></g></g></g><g fill="#f1f3f6" fill-opacity="1"><g transform="translate(584.374561, 644.931366)"><g><path d="M 34.140625 -44.6875 C 35.222656 -44.34375 36.125 -43.753906 36.84375 -42.921875 C 37.5625 -42.097656 37.921875 -40.769531 37.921875 -38.9375 C 37.921875 -37.113281 37.375 -35.113281 36.28125 -32.9375 C 35.195312 -30.769531 33.625 -29.6875 31.5625 -29.6875 C 30.539062 -29.6875 29.554688 -29.910156 28.609375 -30.359375 C 27.660156 -30.816406 26.414062 -31.046875 24.875 -31.046875 C 23.332031 -31.046875 21.890625 -30.503906 20.546875 -29.421875 C 19.203125 -28.335938 18.53125 -27.023438 18.53125 -25.484375 L 18.53125 -7.46875 C 18.53125 -6.144531 18.484375 -5.15625 18.390625 -4.5 C 18.304688 -3.84375 18.035156 -3.085938 17.578125 -2.234375 C 16.722656 -0.742188 14.492188 0 10.890625 0 C 8.148438 0 6.175781 -0.484375 4.96875 -1.453125 C 4.0625 -2.253906 3.550781 -3.484375 3.4375 -5.140625 C 3.4375 -5.710938 3.4375 -6.546875 3.4375 -7.640625 L 3.4375 -37.75 C 3.4375 -39.0625 3.476562 -40.046875 3.5625 -40.703125 C 3.644531 -41.359375 3.890625 -42.085938 4.296875 -42.890625 C 5.085938 -44.429688 7.316406 -45.203125 10.984375 -45.203125 C 14.410156 -45.203125 16.550781 -44.546875 17.40625 -43.234375 C 18.039062 -42.316406 18.359375 -41.375 18.359375 -40.40625 C 18.640625 -40.800781 19.050781 -41.285156 19.59375 -41.859375 C 20.144531 -42.429688 21.304688 -43.203125 23.078125 -44.171875 C 24.847656 -45.148438 26.40625 -45.640625 27.75 -45.640625 C 29.09375 -45.640625 30.222656 -45.566406 31.140625 -45.421875 C 32.054688 -45.273438 33.054688 -45.03125 34.140625 -44.6875 Z M 34.140625 -44.6875 "/></g></g></g><g fill="#f1f3f6" fill-opacity="1"><g transform="translate(623.577403, 644.931366)"><g><path d="M 32.765625 -40.40625 C 33.109375 -43.601562 35.367188 -45.203125 39.546875 -45.203125 C 41.773438 -45.203125 43.429688 -45.03125 44.515625 -44.6875 C 45.609375 -44.34375 46.367188 -43.742188 46.796875 -42.890625 C 47.222656 -42.035156 47.476562 -41.273438 47.5625 -40.609375 C 47.644531 -39.953125 47.6875 -38.96875 47.6875 -37.65625 L 47.6875 -7.640625 C 47.6875 -6.316406 47.644531 -5.328125 47.5625 -4.671875 C 47.476562 -4.015625 47.238281 -3.257812 46.84375 -2.40625 C 46.039062 -0.914062 44.078125 -0.171875 40.953125 -0.171875 C 37.835938 -0.171875 35.75 -0.554688 34.6875 -1.328125 C 33.632812 -2.097656 33.023438 -3.226562 32.859375 -4.71875 C 30.742188 -1.6875 27.210938 -0.171875 22.265625 -0.171875 C 17.316406 -0.171875 12.722656 -2.425781 8.484375 -6.9375 C 4.253906 -11.457031 2.140625 -16.707031 2.140625 -22.6875 C 2.140625 -28.664062 4.269531 -33.898438 8.53125 -38.390625 C 12.789062 -42.878906 17.46875 -45.125 22.5625 -45.125 C 24.507812 -45.125 26.28125 -44.78125 27.875 -44.09375 C 29.476562 -43.40625 30.59375 -42.757812 31.21875 -42.15625 C 31.851562 -41.5625 32.367188 -40.976562 32.765625 -40.40625 Z M 17.15625 -22.5625 C 17.15625 -20.675781 17.894531 -18.972656 19.375 -17.453125 C 20.863281 -15.941406 22.664062 -15.1875 24.78125 -15.1875 C 26.90625 -15.1875 28.664062 -15.957031 30.0625 -17.5 C 31.46875 -19.039062 32.171875 -20.738281 32.171875 -22.59375 C 32.171875 -24.457031 31.5 -26.1875 30.15625 -27.78125 C 28.8125 -29.382812 27.007812 -30.1875 24.75 -30.1875 C 22.488281 -30.1875 20.65625 -29.382812 19.25 -27.78125 C 17.851562 -26.1875 17.15625 -24.445312 17.15625 -22.5625 Z M 17.15625 -22.5625 "/></g></g></g><g fill="#f1f3f6" fill-opacity="1"><g transform="translate(674.704071, 644.931366)"><g><path d="M 30.03125 -22.640625 L 41.4375 -13.203125 C 42.863281 -12.003906 43.757812 -11.085938 44.125 -10.453125 C 44.5 -9.828125 44.6875 -9.226562 44.6875 -8.65625 C 44.6875 -7.289062 43.800781 -5.4375 42.03125 -3.09375 C 40.082031 -0.6875 38.367188 0.515625 36.890625 0.515625 C 35.628906 0.515625 33.882812 -0.3125 31.65625 -1.96875 L 30.796875 -2.578125 C 29.484375 -3.660156 27.453125 -5.5625 24.703125 -8.28125 C 21.960938 -11 19.875 -12.925781 18.4375 -14.0625 L 18.4375 -7.46875 C 18.4375 -6.144531 18.394531 -5.15625 18.3125 -4.5 C 18.226562 -3.84375 17.957031 -3.085938 17.5 -2.234375 C 16.757812 -0.742188 14.554688 0 10.890625 0 C 7.285156 0 5.085938 -0.769531 4.296875 -2.3125 C 3.890625 -3.175781 3.644531 -3.9375 3.5625 -4.59375 C 3.476562 -5.25 3.4375 -6.234375 3.4375 -7.546875 L 3.4375 -58.9375 C 3.4375 -60.25 3.476562 -61.234375 3.5625 -61.890625 C 3.644531 -62.546875 3.890625 -63.304688 4.296875 -64.171875 C 5.085938 -65.710938 7.316406 -66.484375 10.984375 -66.484375 C 13.722656 -66.484375 15.664062 -65.992188 16.8125 -65.015625 C 17.78125 -64.222656 18.296875 -62.96875 18.359375 -61.25 C 18.410156 -60.726562 18.4375 -59.925781 18.4375 -58.84375 L 18.4375 -31.65625 C 19.46875 -32.507812 21.023438 -33.960938 23.109375 -36.015625 C 25.203125 -38.078125 26.765625 -39.539062 27.796875 -40.40625 L 28.828125 -41.09375 C 30.828125 -42.632812 32.539062 -43.40625 33.96875 -43.40625 C 35.394531 -43.40625 37.035156 -42.242188 38.890625 -39.921875 C 40.753906 -37.609375 41.6875 -35.796875 41.6875 -34.484375 C 41.6875 -33.171875 40.628906 -31.628906 38.515625 -29.859375 Z M 30.03125 -22.640625 "/></g></g></g><g fill="#f1f3f6" fill-opacity="1"><g transform="translate(720.683757, 644.931366)"><g><path d="M 29.6875 -30.03125 L 24.109375 -30.359375 L 24.109375 -18.53125 C 24.109375 -16.988281 24.347656 -15.875 24.828125 -15.1875 C 25.316406 -14.5 26.234375 -14.15625 27.578125 -14.15625 C 28.921875 -14.15625 29.945312 -14.109375 30.65625 -14.015625 C 31.375 -13.929688 32.132812 -13.660156 32.9375 -13.203125 C 34.25 -12.460938 34.90625 -10.550781 34.90625 -7.46875 C 34.90625 -3.863281 34.109375 -1.660156 32.515625 -0.859375 C 31.648438 -0.453125 30.890625 -0.207031 30.234375 -0.125 C 29.578125 -0.0390625 28.617188 0 27.359375 0 C 21.410156 0 16.890625 -1.34375 13.796875 -4.03125 C 10.710938 -6.71875 9.171875 -11.265625 9.171875 -17.671875 L 9.171875 -30.359375 C 8.085938 -30.191406 6.914062 -30.109375 5.65625 -30.109375 C 4.40625 -30.109375 3.363281 -30.59375 2.53125 -31.5625 C 1.695312 -32.539062 1.28125 -34.203125 1.28125 -36.546875 C 1.28125 -38.890625 1.421875 -40.585938 1.703125 -41.640625 C 1.992188 -42.703125 2.398438 -43.460938 2.921875 -43.921875 C 3.835938 -44.660156 4.976562 -45.03125 6.34375 -45.03125 L 9.171875 -44.6875 L 9.171875 -53.53125 C 9.171875 -54.84375 9.210938 -55.8125 9.296875 -56.4375 C 9.390625 -57.070312 9.664062 -57.757812 10.125 -58.5 C 10.863281 -59.925781 13.066406 -60.640625 16.734375 -60.640625 C 20.617188 -60.640625 22.929688 -59.582031 23.671875 -57.46875 C 23.960938 -56.550781 24.109375 -55.09375 24.109375 -53.09375 L 24.109375 -44.6875 C 26.617188 -44.914062 28.515625 -45.03125 29.796875 -45.03125 C 31.085938 -45.03125 32.0625 -44.988281 32.71875 -44.90625 C 33.382812 -44.820312 34.144531 -44.550781 35 -44.09375 C 36.488281 -43.34375 37.234375 -41.140625 37.234375 -37.484375 C 37.234375 -33.878906 36.457031 -31.675781 34.90625 -30.875 C 34.050781 -30.476562 33.296875 -30.238281 32.640625 -30.15625 C 31.984375 -30.070312 31 -30.03125 29.6875 -30.03125 Z M 29.6875 -30.03125 "/></g></g></g><g fill="#f1f3f6" fill-opacity="1"><g transform="translate(759.200336, 644.931366)"><g><path d="M 47.015625 -28 C 47.015625 -24.488281 46.140625 -21.890625 44.390625 -20.203125 C 42.648438 -18.515625 40.722656 -17.671875 38.609375 -17.671875 L 18.265625 -17.671875 C 18.265625 -16.066406 19.207031 -14.722656 21.09375 -13.640625 C 22.988281 -12.554688 24.878906 -12.015625 26.765625 -12.015625 C 30.078125 -12.015625 32.675781 -12.351562 34.5625 -13.03125 L 35.515625 -13.375 C 36.890625 -14.007812 38.03125 -14.328125 38.9375 -14.328125 C 40.769531 -14.328125 42.34375 -13.039062 43.65625 -10.46875 C 44.40625 -8.925781 44.78125 -7.609375 44.78125 -6.515625 C 44.78125 -1.429688 38.6875 1.109375 26.5 1.109375 C 22.269531 1.109375 18.507812 0.378906 15.21875 -1.078125 C 11.9375 -2.535156 9.378906 -4.460938 7.546875 -6.859375 C 3.941406 -11.492188 2.140625 -16.671875 2.140625 -22.390625 C 2.140625 -29.597656 4.46875 -35.359375 9.125 -39.671875 C 13.789062 -43.992188 19.613281 -46.15625 26.59375 -46.15625 C 34.539062 -46.15625 40.375 -43.351562 44.09375 -37.75 C 46.039062 -34.769531 47.015625 -31.519531 47.015625 -28 Z M 28.90625 -25.484375 C 31.082031 -25.484375 32.171875 -26.394531 32.171875 -28.21875 C 32.171875 -29.53125 31.671875 -30.585938 30.671875 -31.390625 C 29.671875 -32.191406 28.238281 -32.59375 26.375 -32.59375 C 24.519531 -32.59375 22.675781 -31.832031 20.84375 -30.3125 C 19.007812 -28.800781 18.09375 -27.191406 18.09375 -25.484375 Z M 28.90625 -25.484375 "/></g></g></g><g fill="#f1f3f6" fill-opacity="1"><g transform="translate(808.353976, 644.931366)"><g><path d="M 34.140625 -44.6875 C 35.222656 -44.34375 36.125 -43.753906 36.84375 -42.921875 C 37.5625 -42.097656 37.921875 -40.769531 37.921875 -38.9375 C 37.921875 -37.113281 37.375 -35.113281 36.28125 -32.9375 C 35.195312 -30.769531 33.625 -29.6875 31.5625 -29.6875 C 30.539062 -29.6875 29.554688 -29.910156 28.609375 -30.359375 C 27.660156 -30.816406 26.414062 -31.046875 24.875 -31.046875 C 23.332031 -31.046875 21.890625 -30.503906 20.546875 -29.421875 C 19.203125 -28.335938 18.53125 -27.023438 18.53125 -25.484375 L 18.53125 -7.46875 C 18.53125 -6.144531 18.484375 -5.15625 18.390625 -4.5 C 18.304688 -3.84375 18.035156 -3.085938 17.578125 -2.234375 C 16.722656 -0.742188 14.492188 0 10.890625 0 C 8.148438 0 6.175781 -0.484375 4.96875 -1.453125 C 4.0625 -2.253906 3.550781 -3.484375 3.4375 -5.140625 C 3.4375 -5.710938 3.4375 -6.546875 3.4375 -7.640625 L 3.4375 -37.75 C 3.4375 -39.0625 3.476562 -40.046875 3.5625 -40.703125 C 3.644531 -41.359375 3.890625 -42.085938 4.296875 -42.890625 C 5.085938 -44.429688 7.316406 -45.203125 10.984375 -45.203125 C 14.410156 -45.203125 16.550781 -44.546875 17.40625 -43.234375 C 18.039062 -42.316406 18.359375 -41.375 18.359375 -40.40625 C 18.640625 -40.800781 19.050781 -41.285156 19.59375 -41.859375 C 20.144531 -42.429688 21.304688 -43.203125 23.078125 -44.171875 C 24.847656 -45.148438 26.40625 -45.640625 27.75 -45.640625 C 29.09375 -45.640625 30.222656 -45.566406 31.140625 -45.421875 C 32.054688 -45.273438 33.054688 -45.03125 34.140625 -44.6875 Z M 34.140625 -44.6875 "/></g></g></g></svg>